<svg id="Layer_1" data-name="Layer 1" xmlns="http://www.w3.org/2000/svg" viewBox="0 0 2393.27 1091.08"><defs><style>.cls-1{fill:#ff8b00;}.cls-2{fill:#ff7300;}</style></defs><title>orange</title><polygon class="cls-1" points="336.48 0 655.27 630.08 0 623.57 336.48 0"/><polygon class="cls-2" points="526.48 146 845.27 776.08 190 769.57 526.48 146"/><polygon class="cls-1" points="819.48 261 1138.27 891.08 483 884.57 819.48 261"/><polygon class="cls-1" points="1044.47 378 1363.27 1008.08 708 1001.57 1044.47 378"/><polygon class="cls-1" points="1295.47 275 1614.27 905.08 959 898.57 1295.47 275"/><polygon class="cls-1" points="1638.47 190 1957.27 820.08 1302 813.57 1638.47 190"/><polygon class="cls-1" points="2074.47 0 2393.27 630.08 1738 623.57 2074.47 0"/><polygon class="cls-2" points="952.48 378 1271.27 1008.08 616 1001.57 952.48 378"/><polygon class="cls-2" points="753.48 461 1072.27 1091.08 417 1084.57 753.48 461"/><polygon class="cls-2" points="1434.47 315 1753.27 945.08 1098 938.57 1434.47 315"/><polygon class="cls-2" points="1669.47 358 1988.27 988.08 1333 981.57 1669.47 358"/><polygon class="cls-2" points="1982.47 293 2301.27 923.08 1646 916.57 1982.47 293"/><polygon class="cls-1" points="1798.47 246 2117.27 876.08 1462 869.57 1798.47 246"/></svg>