<?xml version="1.0" standalone="no"?>
<!DOCTYPE svg PUBLIC "-//W3C//DTD SVG 20010904//EN"
 "http://www.w3.org/TR/2001/REC-SVG-20010904/DTD/svg10.dtd">
<svg version="1.0" xmlns="http://www.w3.org/2000/svg"
 width="838.000000pt" height="838.000000pt" viewBox="0 0 838.000000 838.000000"
 preserveAspectRatio="xMidYMid meet">
<metadata>
Created by potrace 1.11, written by Peter Selinger 2001-2013
</metadata>
<g transform="translate(0.000000,838.000000) scale(0.100000,-0.100000)"
fill="#000000" stroke="none">
<path d="M3956 7633 c-4 -4 -17 -9 -29 -10 -12 -1 -54 -4 -94 -6 -40 -3 -77
-8 -83 -12 -5 -3 -10 -4 -10 0 0 3 -8 1 -18 -4 -13 -7 -23 -6 -30 1 -8 8 -12
8 -12 2 0 -6 -6 -11 -12 -11 -15 0 -81 -11 -112 -18 -12 -3 -32 -7 -46 -9 -14
-2 -46 -10 -72 -16 -26 -7 -55 -10 -63 -6 -9 3 -14 2 -11 -3 7 -11 -60 -24
-76 -15 -7 4 -8 3 -4 -4 4 -7 -7 -14 -31 -19 -47 -9 -51 -10 -60 -13 -5 -2
-12 -4 -18 -4 -5 -1 -20 -8 -33 -15 -13 -7 -28 -11 -35 -8 -6 2 -18 -3 -26
-10 -7 -8 -20 -12 -27 -9 -8 3 -14 2 -14 -3 0 -4 -18 -13 -41 -20 -33 -10 -44
-10 -57 1 -15 11 -15 11 -5 -3 11 -14 0 -21 -85 -54 -53 -21 -117 -49 -140
-63 -24 -13 -46 -21 -49 -19 -2 3 -14 -4 -26 -16 -13 -13 -22 -17 -25 -9 -2 7
-8 12 -13 12 -4 0 -5 -8 -2 -17 5 -13 2 -15 -11 -10 -9 4 -15 3 -12 -2 3 -5
-9 -15 -27 -22 -17 -7 -43 -21 -56 -31 -27 -21 -45 -24 -35 -5 4 7 3 9 -2 4
-5 -5 -9 -13 -9 -18 0 -5 -2 -8 -5 -6 -3 1 -12 -4 -20 -11 -8 -7 -53 -38 -100
-68 -47 -30 -93 -62 -103 -70 -11 -8 -25 -13 -32 -10 -10 3 -12 0 -8 -11 4
-11 2 -14 -5 -9 -7 4 -12 3 -12 -1 0 -15 -100 -84 -112 -77 -6 4 -8 3 -5 -3 7
-11 -62 -70 -76 -65 -4 1 -6 -1 -5 -6 3 -7 -41 -50 -100 -98 -13 -10 -53 -49
-90 -86 -36 -37 -70 -64 -75 -61 -6 3 -7 1 -4 -5 4 -5 -7 -22 -24 -36 -17 -14
-28 -26 -25 -26 3 0 -11 -18 -31 -40 -20 -21 -41 -36 -46 -33 -6 3 -7 1 -3 -5
4 -7 2 -12 -5 -12 -7 0 -10 -3 -6 -6 6 -6 -9 -27 -53 -73 -14 -14 -36 -43 -50
-63 -13 -20 -28 -34 -32 -32 -5 3 -8 2 -7 -3 4 -22 -2 -35 -15 -30 -11 4 -13
1 -9 -10 5 -12 3 -14 -7 -8 -9 5 -11 4 -6 -4 9 -14 -12 -43 -25 -35 -5 3 -6
-1 -4 -9 3 -7 -7 -27 -22 -43 -15 -17 -29 -36 -31 -44 -2 -7 -15 -31 -31 -54
-76 -113 -251 -447 -251 -481 0 -8 -5 -15 -11 -15 -5 0 -7 -4 -4 -10 3 -5 1
-10 -4 -10 -6 0 -10 -3 -9 -7 5 -18 -24 -83 -34 -77 -7 4 -8 2 -4 -5 9 -14
-13 -83 -24 -76 -4 3 -6 -3 -4 -12 6 -24 -30 -125 -41 -115 -4 4 -5 2 -2 -4 5
-9 -2 -41 -27 -129 -1 -5 -6 -27 -11 -47 -4 -21 -10 -38 -14 -38 -3 0 -6 -10
-7 -22 -1 -26 -9 -77 -23 -140 -13 -56 -20 -96 -26 -149 -3 -24 -10 -80 -16
-124 -12 -89 -18 -185 -21 -318 -1 -48 -6 -91 -11 -94 -5 -3 -5 -8 1 -12 5 -3
12 -68 15 -144 3 -77 8 -141 11 -145 3 -3 1 -11 -5 -19 -6 -7 -7 -13 -2 -13 8
0 12 -22 17 -95 1 -17 5 -36 10 -43 4 -7 2 -12 -6 -12 -10 0 -10 -2 0 -8 6 -5
14 -33 16 -63 2 -30 7 -62 11 -72 4 -10 8 -33 9 -52 0 -18 4 -31 7 -30 3 2 12
-26 19 -63 16 -76 13 -66 38 -152 10 -36 22 -72 25 -80 4 -8 8 -26 9 -40 2
-14 5 -27 8 -30 3 -3 14 -30 24 -60 10 -30 27 -74 38 -98 10 -23 16 -47 13
-52 -3 -6 -1 -10 5 -10 7 0 9 -7 6 -16 -3 -8 -2 -13 3 -10 5 3 14 -8 20 -24 5
-17 7 -30 3 -30 -4 0 -2 -4 3 -8 13 -9 98 -182 98 -199 0 -7 4 -13 8 -13 14 0
40 -60 33 -72 -4 -7 -3 -8 4 -4 7 4 12 1 12 -8 0 -9 5 -16 10 -16 6 0 10 -5
10 -11 0 -14 109 -183 187 -292 24 -33 40 -64 36 -70 -3 -5 -1 -7 5 -3 6 3 21
-8 34 -26 28 -40 42 -57 93 -115 22 -25 45 -53 51 -62 7 -9 37 -42 68 -74 32
-33 54 -63 50 -69 -4 -7 -3 -8 5 -4 15 9 44 -20 35 -35 -4 -8 -3 -9 5 -5 7 4
31 -13 61 -42 27 -27 64 -60 82 -75 18 -14 48 -39 66 -56 18 -17 49 -43 70
-58 20 -15 39 -30 42 -33 3 -4 26 -21 52 -39 26 -19 45 -38 41 -44 -3 -6 -1
-7 6 -3 11 7 65 -27 56 -36 -3 -3 1 -5 8 -5 17 0 67 -33 67 -45 0 -5 4 -7 9
-4 5 3 19 -2 32 -12 13 -10 52 -34 87 -54 34 -19 59 -38 55 -42 -4 -4 1 -4 11
0 14 5 17 4 12 -5 -4 -6 -4 -10 1 -9 4 1 18 -2 31 -6 20 -7 21 -10 10 -24 -11
-15 -11 -15 3 -4 14 11 30 6 105 -33 48 -25 94 -45 102 -45 7 0 10 -4 7 -10
-3 -5 0 -7 8 -4 8 3 22 -2 31 -11 9 -9 16 -14 16 -11 0 8 84 -26 91 -37 3 -5
9 -8 13 -7 18 3 84 -24 79 -33 -3 -6 -1 -7 5 -3 15 9 63 -4 56 -15 -3 -5 1 -6
9 -3 8 3 31 -2 52 -10 21 -9 47 -16 59 -16 12 0 26 -4 31 -9 6 -6 21 -11 35
-13 14 -2 34 -9 45 -15 11 -5 26 -8 33 -6 6 3 12 1 12 -4 0 -4 17 -9 37 -10
20 -1 40 -8 44 -15 7 -11 9 -11 9 0 0 8 5 10 13 5 6 -4 23 -9 37 -11 13 -2 28
-9 32 -15 6 -9 8 -9 8 0 0 8 10 9 33 3 17 -5 50 -11 72 -14 92 -12 131 -19
142 -28 7 -5 14 -5 18 2 3 6 9 8 13 6 8 -5 160 -18 209 -18 21 0 30 -4 26 -11
-4 -6 -1 -7 8 -1 20 12 38 14 45 3 4 -6 11 -6 19 1 9 8 15 8 20 0 3 -6 11 -7
17 -4 16 10 59 11 85 2 13 -4 25 -3 29 3 4 7 10 7 18 0 7 -6 16 -8 20 -4 4 4
26 8 49 9 133 5 304 24 412 44 58 11 97 18 144 26 19 3 44 9 55 13 12 5 33 8
48 7 14 -1 25 1 22 5 -3 6 33 16 73 21 5 0 33 9 63 20 30 10 57 19 60 20 13 2
28 7 72 23 26 9 53 13 59 9 8 -4 9 -3 5 4 -4 8 0 12 11 12 10 1 36 9 58 20 22
11 44 19 48 20 4 0 29 10 55 22 26 12 49 22 52 23 3 0 15 7 28 14 13 7 30 10
38 7 8 -3 13 -2 10 3 -6 9 78 54 102 54 6 0 12 4 12 8 0 4 28 22 63 40 77 40
104 55 142 79 17 11 37 23 45 27 8 4 49 31 90 60 41 29 80 51 87 49 8 -3 10 1
6 11 -4 10 -2 14 4 10 6 -4 13 -3 15 1 1 5 26 27 54 48 100 77 128 99 152 122
21 18 28 20 41 10 14 -11 14 -11 3 3 -11 14 -7 21 29 50 22 19 45 33 51 31 5
-1 7 1 4 6 -7 12 118 134 128 125 4 -4 6 -3 4 2 -2 6 23 40 54 75 31 36 66 76
77 88 11 13 25 21 30 17 6 -3 8 0 5 8 -3 9 8 28 25 46 17 18 31 34 31 36 0 8
94 130 103 133 4 2 7 8 7 13 0 12 70 113 82 117 4 2 8 10 8 18 0 9 5 12 12 8
7 -4 8 -3 4 5 -9 15 21 64 34 56 6 -3 7 0 5 8 -3 7 6 30 20 51 14 20 25 43 25
51 0 8 4 15 9 15 5 0 13 10 17 23 3 12 13 29 21 39 8 9 16 22 17 30 2 7 21 51
43 98 42 91 126 288 129 305 1 6 16 53 34 105 18 52 33 101 33 108 0 6 3 12 7
12 3 0 6 8 7 18 0 9 3 28 7 42 11 50 28 115 34 130 3 8 4 19 3 23 -1 5 4 27
10 50 6 23 11 52 11 64 0 13 5 20 11 16 6 -3 7 -1 3 6 -6 10 0 68 20 196 2 17
7 82 10 145 4 63 11 117 15 118 5 2 6 8 3 13 -3 6 -8 90 -10 187 -6 316 -31
499 -106 797 -189 746 -617 1398 -1242 1890 -152 119 -424 286 -621 380 -296
141 -716 270 -981 300 -28 3 -59 7 -70 9 -18 4 -96 12 -204 21 -70 6 -439 7
-449 0 -5 -3 -11 0 -13 6 -2 5 -7 7 -12 2z"/>
<path d="M2639 7373 c-13 -16 -12 -17 4 -4 9 7 17 15 17 17 0 8 -8 3 -21 -13z"/>
<path d="M555 4389 c-4 -6 -5 -12 -2 -15 2 -3 7 2 10 11 7 17 1 20 -8 4z"/>
<path d="M716 3742 c-3 -5 1 -9 9 -9 8 0 12 4 9 9 -3 4 -7 8 -9 8 -2 0 -6 -4
-9 -8z"/>
<path d="M636 3633 c-6 -14 -5 -15 5 -6 7 7 10 15 7 18 -3 3 -9 -2 -12 -12z"/>
<path d="M7590 3346 c0 -2 7 -7 16 -10 8 -3 12 -2 9 4 -6 10 -25 14 -25 6z"/>
<path d="M1396 2027 c3 -10 9 -15 12 -12 3 3 0 11 -7 18 -10 9 -11 8 -5 -6z"/>
<path d="M7016 1987 c3 -10 9 -15 12 -12 3 3 0 11 -7 18 -10 9 -11 8 -5 -6z"/>
<path d="M1593 1785 c0 -8 4 -12 9 -9 5 3 6 10 3 15 -9 13 -12 11 -12 -6z"/>
<path d="M6547 1539 c7 -7 15 -10 18 -7 3 3 -2 9 -12 12 -14 6 -15 5 -6 -5z"/>
<path d="M1950 1419 c0 -5 5 -7 10 -4 6 3 10 8 10 11 0 2 -4 4 -10 4 -5 0 -10
-5 -10 -11z"/>
<path d="M6020 1146 c0 -2 8 -10 18 -17 15 -13 16 -12 3 4 -13 16 -21 21 -21
13z"/>
<path d="M5755 1031 c-3 -5 -2 -12 3 -15 5 -3 9 1 9 9 0 17 -3 19 -12 6z"/>
<path d="M5595 941 c-3 -5 -2 -12 3 -15 5 -3 9 1 9 9 0 17 -3 19 -12 6z"/>
<path d="M5427 839 c7 -7 15 -10 18 -7 3 3 -2 9 -12 12 -14 6 -15 5 -6 -5z"/>
<path d="M5114 726 c1 -8 5 -18 8 -22 4 -3 5 1 4 10 -1 8 -5 18 -8 22 -4 3 -5
-1 -4 -10z"/>
<path d="M3505 700 c-3 -6 1 -7 9 -4 18 7 21 14 7 14 -6 0 -13 -4 -16 -10z"/>
<path d="M3955 660 c3 -5 8 -10 11 -10 2 0 4 5 4 10 0 6 -5 10 -11 10 -5 0 -7
-4 -4 -10z"/>
<path d="M4195 620 c3 -5 8 -10 11 -10 2 0 4 5 4 10 0 6 -5 10 -11 10 -5 0 -7
-4 -4 -10z"/>
</g>
</svg>
