<svg xmlns="http://www.w3.org/2000/svg" id="Layer_1" x="0" y="0" version="1.1" viewBox="0 0 100 100" xml:space="preserve">
  <style>
    .st0{fill:#78cac3}
		.st1{fill:#8fca7c}
		.st2{fill:#fab070}
		.st3{fill:#f27f8c}
		.st4{fill:#aa86bd}
		@keyframes spinF {
		  from {
		    transform: rotate(0deg);
		  }
		  to {
		    transform: rotate(360deg);
		  }
		}
		#earth1, #earth2, #earth3{
		transform-origin: 50% 50%;
		}
		#earth1 {
			animation: spinF 200s infinite linear;
		}
		#earth3 {
			animation: spinF 300s infinite linear;
		}
		#earth2 {
			animation: spinF 400s infinite linear;
		}
  </style>
  <g id="earth1">
    <path d="M48.5 86.3A34.8 34.8 0 0121 30.5a34.5 34.5 0 0118.1-12.3c.3-.1.6.1.7.4.1.3-.1.6-.4.7a33.5 33.5 0 009.1 65.8c.3 0 .6.3.6.6 0 .4-.3.6-.6.6zm9.7-1.3a.7.7 0 01-.6-.4c-.1-.3.1-.6.4-.7a33.6 33.6 0 00-9.3-65.8.6.6 0 01-.6-.6c0-.3.3-.6.6-.6a34.8 34.8 0 0127.6 55.7 34.7 34.7 0 01-18 12.3l-.1.1z" class="st0"/>
    <path d="M44.7 86.1c-.1 0-.1 0 0 0a34 34 0 01-25.9-17.3c.1-.1.2-.3.4-.3l2.5-.3c1.9 0 3.2.7 4.6 1.4 1 .5 2.1 1.1 3.5 1.5 4.2 1.2 4.5 3.3 4.7 4.9.1.9.3 1.6 1 2.2.3.2.7.3 1.3.3 1.2 0 2.7-.5 3.8-.8l.6-.2.3-.1c1.3-.4 4.3-1.3 6.1-1.3 1.7 0 2 .9 2 1.4 0 .6-.3 1.2-1 2.1L46.5 82c-1.1 1.1-1.4 1.5-1.4 2.3l.2 1.1v.2c0 .2-.3.5-.6.5zM20.2 69.4c5.2 8.3 14 14 23.7 15.4v-.6c0-1.2.7-1.9 1.7-3.1l2.1-2.3c.7-.9.8-1.3.8-1.4 0 0-.1-.2-.8-.2-1.7 0-4.7.9-5.8 1.3l-.3.1-.6.2c-1.2.4-2.7.9-4.1.9-.8 0-1.5-.2-2-.6-1.1-.8-1.3-2-1.4-2.9-.2-1.5-.5-3-3.9-4-1.6-.5-2.7-1.1-3.8-1.6-1.4-.7-2.5-1.3-4.1-1.3l-1.5.1zM36.4 57.6c-.3 0-.5-.2-.6-.5-.1-.3.1-.6.4-.7l2-.2 1.6.1 1.2.1c1.1 0 2.4-.3 4.7-3.3 1.2-1.6 1.8-2 2.4-2.4l1.3-1c.4-.4.6-1.1.6-1.9 0-2.2-1.4-5.2-2.4-7.4l-1-2.5c-.8-2.4-1.3-3.7-1.3-4.7 0-1.2.7-1.9 1.7-3.1l2.1-2.3c.7-.9.8-1.3.8-1.3s-.1-.2-.8-.2c-1.7 0-4.7.9-5.8 1.3l-.3.1-.7.2c-1.4.4-2.7.8-3.8.8-1.8 0-2.7-1.1-2.7-3.4l.1-1.1c.2-1.4.2-2.5.2-3.4v-.2A33.6 33.6 0 0016.3 43c1.3.3 3 .5 5.2.5 2.1 0 7 .4 7.8 4v.5c0 .6-.2 1.3-.4 2.2-.2 1-.5 2.1-.5 3.3 0 .8.1 1.6.4 2.2.1.3 0 .6-.3.8-.3.1-.6 0-.8-.3a6 6 0 01-.5-2.7c0-1.3.3-2.5.5-3.5a8 8 0 00.3-1.9v-.3c-.6-2.8-5.2-3.1-6.6-3.1a20 20 0 01-6.1-.7c-.3-.1-.5-.4-.4-.7a34.5 34.5 0 0121.5-24.1c.2-.1.4 0 .5.1.2.1.3.3.3.4v1.1l-.2 3.5v.9c0 2 .8 2.2 1.5 2.2.9 0 2.1-.4 3.4-.8l.7-.2.3-.1c1.3-.4 4.3-1.3 6.1-1.3 1.7 0 2 .9 2 1.4 0 .6-.3 1.2-1 2.1l-2.1 2.4c-1.1 1.1-1.4 1.5-1.4 2.3 0 .8.4 2.1 1.2 4.3l1 2.4c1.1 2.5 2.5 5.5 2.5 7.9 0 1.2-.3 2.1-1 2.8-.7.7-1.1.9-1.5 1.2-.5.3-1 .6-2.1 2.1-2.4 3.1-4 3.8-5.6 3.8l-1.3-.1-1.5-.1-1.7.2-.1-.1zM77.6 49.7c-.9 0-1.8-.5-2.9-1.6a6.1 6.1 0 01-1.8-4.5c0-1.3.3-2.5.5-3.5a8 8 0 00.3-1.9v-.3c-.9-2.9-4.2-3-7.8-3.1-3.3-.1-6.7-.3-8.1-2.8-.3-.5-.4-1.1-.4-1.7 0-1.9 1.5-3.9 2.8-5.6l1.6-2.3.8-2 .3-.4h.5a34.6 34.6 0 0119.7 26.9c0 .3-.2.6-.5.7l-1.1.3-1.7.8c-.7.6-1.4 1-2.2 1zM63.5 21.5l-.6 1.5c-.4.8-1 1.6-1.7 2.5-1.2 1.6-2.5 3.3-2.5 4.9 0 .4.1.8.3 1.1 1.1 2 4 2.1 7.1 2.2 3.6.2 7.7.3 8.8 4v.6c0 .6-.2 1.3-.4 2.2-.2 1-.5 2.1-.5 3.3 0 1.5.5 2.7 1.4 3.6 1.1 1.1 1.7 1.2 2.1 1.2.5 0 1-.3 1.6-.7.5-.3 1.2-.7 1.9-.9l.7-.2a33 33 0 00-18.2-25.3zM59.2 84.7l-.4-.1c-.4-.3-.7-.7-.9-1.1-.3-.5-.4-1.1-.4-1.7 0-1.9 1.5-3.9 2.8-5.6l1.6-2.3c1.1-2.4 1.7-5.1 1.7-7.5 0-.9-.1-1.7-.3-2.5A8 8 0 0163 62c0-1.7 1.1-2.3 3.1-2.9 1-.3 1.8-.4 2.6-.4 1.9 0 3.2.7 4.6 1.4 1 .5 2.1 1.1 3.5 1.5a7 7 0 013.9 2.3l.1.6a35 35 0 01-21.5 20l-.1.2zM68.8 60l-2.3.3c-2.1.6-2.3 1-2.3 1.7l.2 1.6c.2.8.3 1.7.3 2.7 0 2.5-.7 5.5-1.9 8-.4.8-1 1.6-1.7 2.5-1.2 1.6-2.5 3.3-2.5 4.9 0 .4.1.8.3 1.1l.4.6a33.3 33.3 0 0020.3-18.9 6 6 0 00-3-1.6c-1.6-.5-2.7-1.1-3.8-1.6a7 7 0 00-4-1.3z" class="st1"/>
  </g>
  <g id="earth2">
    <path d="M48.7 95.5A44 44 0 0116 80.6l.2-.4a4.3 4.3 0 00-5-6.9l-.5.1a44 44 0 01-5.4-14.7c-.1-.3.2-.6.5-.7.3-.1.6.2.7.5.8 4.8 2.3 9.3 4.6 13.5.7-.4 1.5-.5 2.4-.5a5.4 5.4 0 013.8 9.2A43 43 0 0077 83.6c.2-.2.6-.2.8 0 .2.2.2.6 0 .8a43.3 43.3 0 01-29.1 11.1z" class="st2"/>
    <path d="M48.7 7.7h-.3l-.4.2-.2.4v.1c0 1.5-1.3 2.8-2.8 2.8a2.9 2.9 0 01-2.8-2.5l-.2-.4-.4-.1A44 44 0 004.9 48.7c0 .3.2.6.5.6s.6-.2.6-.5A42.5 42.5 0 0141.1 9.6a4 4 0 003.8 2.9 4 4 0 004-3.6 42.8 42.8 0 0142.4 39.5h-.1c.1.3.1.5 0 .8l-.1.4h.1l.7-.1.4-.2.2-.4A44 44 0 0048.7 7.7z" class="st3"/>
    <path d="M92.3 53.9l-.3-.2-.6.4-.2.1-.1.5h.1a41.5 41.5 0 01-7.7 21.6c-.2.3-.1.6.1.8l.3.1.5-.2a44.1 44.1 0 007.9-23.1z" class="st4"/>
    <path d="M45 12.5c-2.2 0-4-1.8-4-4s1.8-4 4-4 4 1.8 4 4-1.8 4-4 4zm0-6.8c-1.5 0-2.8 1.3-2.8 2.8s1.3 2.8 2.8 2.8c1.6 0 2.8-1.3 2.8-2.8S46.5 5.7 45 5.7z" class="st3"/>
    <path d="M92 54.9a3.2 3.2 0 01-3.2-3.3c0-1.8 1.5-3.3 3.2-3.3 1.8 0 3.3 1.5 3.3 3.3-.1 1.8-1.5 3.3-3.3 3.3zm0-5.4c-1.1 0-2.1.9-2.1 2.1 0 1.1.9 2.1 2.1 2.1 1.1 0 2.1-.9 2.1-2.1-.1-1.1-1-2.1-2.1-2.1z" class="st4"/>
    <path d="M13.5 82.3c-3 0-5.4-2.4-5.4-5.4 0-3 2.4-5.4 5.4-5.4 3 0 5.4 2.4 5.4 5.4 0 2.9-2.4 5.4-5.4 5.4zm0-9.7a4.3 4.3 0 00-4.3 4.3c0 2.4 1.9 4.3 4.3 4.3 2.3 0 4.3-1.9 4.3-4.3-.1-2.4-2-4.3-4.3-4.3z" class="st2"/>
  </g>
  <g id="earth3">
    <path d="M12.5 66.8c-.2 0-.5-.1-.5-.4a39.4 39.4 0 01-2.9-14.8c0-.3.3-.6.6-.6s.6.3.6.6c0 5 .9 9.8 2.8 14.4.1.3 0 .6-.3.8h-.3zM48.6 91.2a.6.6 0 01-.6-.6c0-.3.3-.6.6-.6 10.7 0 21-4.5 28.3-12.4.2-.2.6-.3.8 0 .2.2.3.6 0 .8a39.7 39.7 0 01-29.1 12.8zM84.8 37.6c-.2 0-.5-.1-.5-.4A38.6 38.6 0 0054 13.5c-.3 0-.5-.3-.5-.7 0-.3.3-.5.7-.5 14 1.9 26 11.3 31.3 24.4.1.3 0 .6-.3.8l-.4.1z" class="st0"/>
  </g>
</svg>
