<svg xmlns="http://www.w3.org/2000/svg" viewBox="0 0 259.767 858.433"><defs><style>.a{opacity:0.2;}.b,.c,.d,.e,.f,.g,.k,.m{fill:none;stroke-miterlimit:10;}.b,.f{stroke:#000;}.b,.d,.e,.g,.k,.m{stroke-width:8px;}.c,.d{stroke:#8fd7f3;}.c,.f{stroke-width:6px;}.e{stroke:#65b2f9;}.g{stroke:#ff808d;}.h{fill:#c883ff;}.i{fill:#8fd7f3;}.j{fill:#65b2f9;}.k{stroke:#81e67f;}.l{fill:#81e67f;}.m{stroke:#ffb16f;}.n{fill:#ffb16f;}.o{fill:#ff808d;}</style></defs><title>sleep-cycle</title><g class="a"><circle cx="227.55" cy="39.217" r="32.217"/><line class="b" x1="196.444" y1="196.209" x2="79.953" y2="197.286"/><path class="b" d="M355.573,336.07c-45.481-.327-69.584,13.4-69.839,48.772" transform="translate(-273.735 -234.791)"/><path class="b" d="M285.744,383.579c-.264,36.637,22.395,48.171,69.139,48.506" transform="translate(-273.735 -234.791)"/><path class="b" d="M503.379,305c-.145,20.214-6.755,31.485-29.5,31.321" transform="translate(-273.735 -234.791)"/><line class="b" x1="202.541" y1="101.548" x2="79.446" y2="101.262"/><circle cx="227.55" cy="196.717" r="32.217"/><line class="b" x1="196.444" y1="353.709" x2="102.953" y2="354.786"/><path class="b" d="M378.573,493.57c-45.481-.327-69.584,13.4-69.839,48.772" transform="translate(-273.735 -234.791)"/><path class="b" d="M308.744,541.079c-.264,36.637,22.395,48.171,69.139,48.506" transform="translate(-273.735 -234.791)"/><path class="b" d="M503.379,462.5c-.145,20.214-6.755,31.485-29.5,31.321" transform="translate(-273.735 -234.791)"/><line class="b" x1="202.541" y1="259.048" x2="102.446" y2="258.762"/><path class="b" d="M356.856,683.591" transform="translate(-273.735 -234.791)"/><circle cx="227.55" cy="354.217" r="32.217"/><line class="b" x1="196.444" y1="511.209" x2="126.953" y2="512.286"/><path class="b" d="M402.573,651.07c-45.481-.327-69.584,13.4-69.839,48.772" transform="translate(-273.735 -234.791)"/><path class="b" d="M332.744,698.579c-.264,36.637,22.395,48.171,69.139,48.506" transform="translate(-273.735 -234.791)"/><path class="b" d="M503.379,620c-.145,20.214-6.755,31.485-29.5,31.321" transform="translate(-273.735 -234.791)"/><line class="b" x1="202.541" y1="416.548" x2="126.446" y2="416.262"/><path class="b" d="M380.856,841.091" transform="translate(-273.735 -234.791)"/><circle cx="227.55" cy="511.717" r="32.217"/><path class="b" d="M478.127,745.681" transform="translate(-273.735 -234.791)"/><line class="b" x1="196.444" y1="668.709" x2="150.953" y2="669.786"/><path class="b" d="M426.573,808.57c-45.481-.327-69.584,13.4-69.839,48.772" transform="translate(-273.735 -234.791)"/><path class="b" d="M356.744,856.079c-.264,36.637,22.395,48.171,69.139,48.506" transform="translate(-273.735 -234.791)"/><path class="b" d="M503.379,777.5c-.145,20.214-6.755,31.485-29.5,31.321" transform="translate(-273.735 -234.791)"/><line class="b" x1="202.541" y1="574.048" x2="150.446" y2="573.762"/><line class="b" x1="194.361" y1="826.209" x2="174.869" y2="827.286"/><path d="M500.136,1093.223a32.216,32.216,0,1,1,32.448-31.984,32.216,32.216,0,0,1-32.448,31.984" transform="translate(-273.735 -234.791)"/><path class="b" d="M409.618,998.591" transform="translate(-273.735 -234.791)"/><path class="b" d="M480.618,903.181" transform="translate(-273.735 -234.791)"/><path class="b" d="M409.618,1061.989" transform="translate(-273.735 -234.791)"/><circle cx="226.633" cy="669.217" r="32.217"/><path class="b" d="M450.49,966.07c-45.481-.327-69.585,13.4-69.839,48.772" transform="translate(-273.735 -234.791)"/><path class="b" d="M380.66,1013.579c-.263,36.637,22.4,48.171,69.14,48.506" transform="translate(-273.735 -234.791)"/><path class="b" d="M504.3,935c-.146,20.214-6.756,31.485-29.5,31.321" transform="translate(-273.735 -234.791)"/><line class="b" x1="203.458" y1="731.548" x2="174.363" y2="731.262"/><path class="b" d="M409.618,1060.181" transform="translate(-273.735 -234.791)"/></g><path class="c" d="M301.856,361.591" transform="translate(-273.735 -234.791)"/><path class="d" d="M470.127,266.181" transform="translate(-273.735 -234.791)"/><path class="e" d="M460.905,424.989" transform="translate(-273.735 -234.791)"/><path class="c" d="M324.856,519.091" transform="translate(-273.735 -234.791)"/><path class="d" d="M470.127,423.681" transform="translate(-273.735 -234.791)"/><path class="e" d="M460.905,582.489" transform="translate(-273.735 -234.791)"/><path class="d" d="M470.127,581.181" transform="translate(-273.735 -234.791)"/><path class="e" d="M460.905,739.989" transform="translate(-273.735 -234.791)"/><path class="e" d="M460.905,897.489" transform="translate(-273.735 -234.791)"/><path class="f" d="M568.856,392.591" transform="translate(-273.735 -234.791)"/><path class="b" d="M476.127,271.181" transform="translate(-273.735 -234.791)"/><path class="b" d="M466.905,429.989" transform="translate(-273.735 -234.791)"/><path class="f" d="M330.856,524.091" transform="translate(-273.735 -234.791)"/><path class="b" d="M476.127,428.681" transform="translate(-273.735 -234.791)"/><path class="b" d="M466.905,587.489" transform="translate(-273.735 -234.791)"/><path class="b" d="M476.127,586.181" transform="translate(-273.735 -234.791)"/><path class="b" d="M466.905,744.989" transform="translate(-273.735 -234.791)"/><path class="b" d="M466.905,902.489" transform="translate(-273.735 -234.791)"/><line class="g" x1="186.361" y1="819.209" x2="166.869" y2="820.286"/><path class="h" d="M492.136,1086.223a32.216,32.216,0,1,1,32.448-31.984,32.216,32.216,0,0,1-32.448,31.984" transform="translate(-273.735 -234.791)"/><circle class="i" cx="219.55" cy="32.217" r="32.217"/><line class="d" x1="188.444" y1="189.209" x2="71.953" y2="190.286"/><path class="d" d="M347.573,329.07c-45.481-.327-69.584,13.4-69.839,48.772" transform="translate(-273.735 -234.791)"/><path class="d" d="M277.744,376.579c-.264,36.637,22.395,48.171,69.139,48.506" transform="translate(-273.735 -234.791)"/><path class="d" d="M495.379,298c-.145,20.214-6.755,31.485-29.5,31.321" transform="translate(-273.735 -234.791)"/><line class="d" x1="194.541" y1="94.548" x2="71.446" y2="94.262"/><circle class="j" cx="219.55" cy="189.717" r="32.217"/><line class="e" x1="188.444" y1="346.709" x2="94.953" y2="347.786"/><path class="e" d="M370.573,486.57c-45.481-.327-69.584,13.4-69.839,48.772" transform="translate(-273.735 -234.791)"/><path class="e" d="M300.744,534.079c-.264,36.637,22.395,48.171,69.139,48.506" transform="translate(-273.735 -234.791)"/><path class="e" d="M495.379,455.5c-.145,20.214-6.755,31.485-29.5,31.321" transform="translate(-273.735 -234.791)"/><line class="e" x1="194.541" y1="252.048" x2="94.446" y2="251.762"/><path class="k" d="M348.856,676.591" transform="translate(-273.735 -234.791)"/><circle class="l" cx="219.55" cy="347.217" r="32.217"/><line class="k" x1="188.444" y1="504.209" x2="118.953" y2="505.286"/><path class="k" d="M394.573,644.07c-45.481-.327-69.584,13.4-69.839,48.772" transform="translate(-273.735 -234.791)"/><path class="k" d="M324.744,691.579c-.264,36.637,22.395,48.171,69.139,48.506" transform="translate(-273.735 -234.791)"/><path class="k" d="M495.379,613c-.145,20.214-6.755,31.485-29.5,31.321" transform="translate(-273.735 -234.791)"/><line class="k" x1="194.541" y1="409.548" x2="118.446" y2="409.262"/><path class="m" d="M372.856,834.091" transform="translate(-273.735 -234.791)"/><circle class="n" cx="219.55" cy="504.717" r="32.217"/><path class="m" d="M470.127,738.681" transform="translate(-273.735 -234.791)"/><line class="m" x1="188.444" y1="661.709" x2="142.953" y2="662.786"/><path class="m" d="M418.573,801.57c-45.481-.327-69.584,13.4-69.839,48.772" transform="translate(-273.735 -234.791)"/><path class="m" d="M348.744,849.079c-.264,36.637,22.395,48.171,69.139,48.506" transform="translate(-273.735 -234.791)"/><path class="m" d="M495.379,770.5c-.145,20.214-6.755,31.485-29.5,31.321" transform="translate(-273.735 -234.791)"/><line class="m" x1="194.541" y1="567.048" x2="142.446" y2="566.762"/><path class="g" d="M401.618,991.591" transform="translate(-273.735 -234.791)"/><path class="g" d="M472.618,896.181" transform="translate(-273.735 -234.791)"/><path class="g" d="M401.618,1054.989" transform="translate(-273.735 -234.791)"/><circle class="o" cx="218.633" cy="662.217" r="32.217"/><path class="g" d="M442.49,959.07c-45.481-.327-69.585,13.4-69.839,48.772" transform="translate(-273.735 -234.791)"/><path class="g" d="M372.66,1006.579c-.263,36.637,22.4,48.171,69.14,48.506" transform="translate(-273.735 -234.791)"/><path class="g" d="M496.3,928c-.146,20.214-6.756,31.485-29.5,31.321" transform="translate(-273.735 -234.791)"/><line class="g" x1="195.458" y1="724.548" x2="166.363" y2="724.262"/><path class="g" d="M401.618,1053.181" transform="translate(-273.735 -234.791)"/></svg>