<?xml version="1.0" encoding="utf-8"?>
<!-- Generator: Adobe Illustrator 23.0.1, SVG Export Plug-In . SVG Version: 6.00 Build 0)  -->
<svg version="1.1" id="Layer_1" xmlns="http://www.w3.org/2000/svg" xmlns:xlink="http://www.w3.org/1999/xlink" x="0px" y="0px"
	 viewBox="0 0 321.6 100.3" style="enable-background:new 0 0 321.6 100.3;" xml:space="preserve">
<style type="text/css">
	.st0{fill:#939291;}
	.st1{fill:#939291;stroke:#939291;stroke-miterlimit:10;}
</style>
<title>contact</title>
<path class="st0" d="M67.5,62.6h8.4v37.6H0V62.7h8.4v30.1h59.1V62.6z"/>
<path class="st0" d="M34,19l5.6-5.7l32.7,25.4l-5.5,5.7L34,19z"/>
<path class="st0" d="M16.6,72l0.5-7.5l42.3,2.4l-0.6,7.5L16.6,72z"/>
<path class="st0" d="M16.9,85.2v-7.5H59v7.5H16.9z"/>
<path class="st0" d="M23.4,37.8l3.8-6.7l37.5,17l-3.8,6.8L23.4,37.8z"/>
<path class="st0" d="M19.9,48.6l40.8,8.5l-1.9,7.4L18,55.9L19.9,48.6z"/>
<path class="st0" d="M51.3,4.5l7-4.3L82,31l-7,4.3L51.3,4.5z"/>
<path class="st0" d="M159.9,94.5c0,1.7,0.7,3.3,1.9,4.4c1,0.9,2.3,1.3,3.7,1.3c0.5,0,0.9,0,1.4-0.1h0.2l0.2-0.1
	c4.9-1.7,9.6-4.1,13.7-7.3c4.1-3.1,7.8-6.9,10.8-11.1c10.4-14.6,12.5-33.5,5.7-50.1c-2.5-6.1-6.1-11.6-10.7-16.3
	c-4.5-4.7-9.9-8.4-15.9-11c-12.4-5.4-26.5-5.4-38.9,0c-6,2.6-11.4,6.3-15.9,11c-4.6,4.7-8.2,10.2-10.7,16.3
	c-6.8,16.6-4.6,35.5,5.7,50.1c3,4.2,6.7,8,10.8,11.1c4.2,3.1,8.8,5.6,13.7,7.3l0.2,0.1h0.2c1.8,0.4,3.6,0,5-1.2c1.3-1.1,2-2.7,2-4.4
	c0-0.4,0-1.2,0-2.1c0-1.8,0-4.2,0-6.8v-4.1l-1.7,0.4l1.7-0.4l0.1-2.1c0.1-1.7,0.8-3.2,2-4.5l5.3-4.9l-7.1-0.8
	c-5.9-0.7-10-2.1-12.9-4.6c-3.8-3.2-5.6-8.4-5.6-15.7c-0.1-3.9,1.4-7.7,4-10.6l1.4-1.5l-0.8-1.9c-0.9-2.6-1-5.5-0.2-8.2
	c1.5,0.4,2.9,1,4.2,1.7c1.6,0.8,3.1,1.7,4.5,2.7l1.2,0.9l1.4-0.4c7.1-2,14.6-2,21.6,0l1.4,0.4l1.2-0.9c1.4-1,2.9-1.9,4.5-2.7
	c1.3-0.7,2.8-1.3,4.2-1.7c0.8,2.7,0.7,5.5-0.2,8.2l-0.8,1.9l1.4,1.5c2.6,2.9,4,6.7,3.9,10.6c0,7.4-1.8,12.5-5.6,15.7
	c-2.9,2.5-7,3.9-12.9,4.6l-7.4,0.8l5.6,5c0.6,0.5,2,2.2,2,6.3c0,4.3,0,8-0.1,10.5C159.9,93,159.9,93.9,159.9,94.5z M176.7,69.6
	c5.3-4.5,7.9-11.5,7.9-20.8c0.1-4.9-1.5-9.7-4.4-13.6c1-4.4,0.6-9-1.1-13.2l-0.6-1.5L177,20c-2.5-0.8-5.8-0.1-10.3,2.2
	c-1.6,0.8-3.1,1.7-4.1,2.3c-7.3-1.8-15-1.8-22.3,0c-1-0.6-2.4-1.5-4.1-2.3c-4.5-2.3-7.8-3-10.3-2.2l-1.5,0.5L124,22
	c-1.7,4.2-2.1,8.8-1.1,13.2c-2.9,3.9-4.5,8.7-4.4,13.6c0,9.3,2.7,16.3,7.9,20.8c3.3,2.7,7.2,4.5,11.3,5.3c-0.2,0.5-0.4,1-0.5,1.5
	c-4.3,1.4-6.7-0.9-8-3.2l0,0c-2-3.6-5.6-6-9.7-6.6h-0.2c-0.9,0-1.7,0.1-2.6,0.3c-1.3,0.4-2.2,1.4-2.6,2.6c-0.6,2.1,0.4,4.2,3,6
	l0.2,0.1l0.2,0.1c1.1,0.5,2.7,3.1,3.5,5.1c1.6,4.7,5.7,7.6,11.6,8.2c1.3,0.1,2.7,0.1,4,0.1c0,1.2,0,2.2,0,3.1c0,0.3,0,0.6,0,0.9
	c-17.4-6.6-28.9-23.3-28.7-42c0-24.6,19.5-44.6,43.6-44.6s43.5,20,43.5,44.6c0.1,18.6-11.3,35.4-28.8,42c0-0.4,0-0.9,0-1.4
	c0-2.5,0-6.2,0-10.5c0-2.2-0.3-4.3-1-6.4C169.5,74.1,173.4,72.3,176.7,69.6z"/>
<path class="st1" d="M241.9,27.9h-19.3c-1.3,0-2.4,1.1-2.4,2.4v67c0,1.3,1.1,2.4,2.4,2.4h19.3c1.3,0,2.4-1.1,2.4-2.4v-67
	C244.2,29,243.2,27.9,241.9,27.9z M239.5,94.9H225V32.7h14.5V94.9z M295.7,27.1c-7.1-0.2-14,2.5-19.1,7.5l-0.4-4.6
	c-0.1-1.2-1.2-2.1-2.4-2.1l0,0l-17.6,0.3c-0.6,0-1.3,0.3-1.7,0.8s-0.7,1.1-0.6,1.7c0.1,5,0.1,10.7,0.1,17.3v49.6
	c0,1.3,1.1,2.4,2.4,2.4l0,0h19.3c1.3,0,2.4-1.1,2.4-2.4l0,0V58.9c-0.1-1.4,0.1-2.9,0.5-4.3c1.2-3,5.2-6.2,9.7-6.2
	c5.9,0,9.4,4.5,9.4,11.9v37.2c0,1.3,1.1,2.4,2.4,2.4h19c1.3,0,2.4-1.1,2.4-2.4V58C321.6,38.6,311.9,27.1,295.7,27.1L295.7,27.1z
	 M316.8,95.3h-14.2V60.4c0-10.1-5.6-16.7-14.2-16.7c-6.9,0-12.4,4.7-14.2,9.2c-0.7,1.9-1,4-0.9,6v36.4h-14.5V48c0-5.6,0-10.6-0.1-15
	l13-0.2l0.7,7.6c0.1,1.2,1.2,2.2,2.4,2.1h0.4c0.8,0,1.6-0.4,2-1.1c1.4-2.2,6.9-9.5,18.5-9.5c13.4,0,21.1,9.5,21.1,26.1L316.8,95.3
	L316.8,95.3z M233,0c-7.8,0-13.4,5.3-13.4,12.6s5.5,12.6,13.1,12.6c7.9,0,13.5-5.3,13.5-12.7C246.1,5.2,240.6,0,233,0L233,0z
	 M232.7,20.5c-4.9,0-8.4-3.2-8.4-7.9s3.5-7.9,8.6-7.9s8.4,3.1,8.5,7.9S238,20.5,232.7,20.5L232.7,20.5z"/>
</svg>
