<svg xmlns="http://www.w3.org/2000/svg" viewBox="0 0 726 384.785"><defs><style>.a,.b,.d,.e,.f,.g,.h,.j{fill:none;stroke-miterlimit:10;}.a,.b{stroke:#0c0c0c;}.a,.d{stroke-width:6px;}.b,.e,.f,.g,.h,.j{stroke-width:8px;}.c{fill:#0c0c0c;}.d,.j{stroke:#8fd7f3;}.e{stroke:#f27f8c;}.f{stroke:#fab070;}.g{stroke:#8fca7c;}.h{stroke:#78cac3;}.i{fill:#8fd7f3;}.k{fill:#f27f8c;}.l{fill:#fab070;}.m{fill:#8fca7c;}.n{fill:#78cac3;}.o{fill:#aa86bd;}</style></defs><title>sleep-cycle</title><path class="a" d="M136.661,738.935" transform="translate(-20 -378.215)"/><line class="b" x1="698.543" y1="57.634" x2="698.543" y2="144.23"/><path class="b" d="M639.339,522.445c0,38.018,8.8,59.139,41.186,59.139" transform="translate(-20 -378.215)"/><path class="b" d="M679.469,581.584c30.625,0,39.074-20.065,39.074-59.139" transform="translate(-20 -378.215)"/><path class="b" d="M613.994,481.26c13.729,0,25.345,3.112,25.345,42.185" transform="translate(-20 -378.215)"/><path class="b" d="M639.339,523.5" transform="translate(-20 -378.215)"/><path class="b" d="M638.283,505.549" transform="translate(-20 -378.215)"/><line class="b" x1="567.593" y1="123.109" x2="567.593" y2="195.92"/><path class="b" d="M506.277,573.136c0,38.017,11.617,60.194,41.186,60.194" transform="translate(-20 -378.215)"/><path class="b" d="M546.407,633.33c30.625,0,41.186-21.121,41.186-60.194" transform="translate(-20 -378.215)"/><path class="b" d="M480.932,480.2c11.617-1.057,24.289,4.224,24.289,25.345" transform="translate(-20 -378.215)"/><line class="b" x1="485.221" y1="126.277" x2="486.277" y2="195.92"/><line class="b" x1="434.531" y1="127.333" x2="433.475" y2="241.33"/><path class="b" d="M373.215,618.546c0,38.017,11.617,59.138,41.186,59.138" transform="translate(-20 -378.215)"/><path class="b" d="M413.345,677.684c30.626,0,40.13-20.065,40.13-59.138" transform="translate(-20 -378.215)"/><path class="b" d="M347.87,480.2c11.265,0,25.345,7.392,25.345,26.4" transform="translate(-20 -378.215)"/><line class="b" x1="353.215" y1="127.389" x2="353.215" y2="241.33"/><line class="b" x1="302.525" y1="127.333" x2="302.525" y2="282.516"/><path class="b" d="M242.265,659.732c0,38.017,11.617,58.082,41.186,58.082" transform="translate(-20 -378.215)"/><path class="b" d="M282.4,717.814c30.626,0,40.13-19.009,40.13-58.082" transform="translate(-20 -378.215)"/><path class="b" d="M214.864,479.147c14.081,0,27.4,7.393,27.4,26.4" transform="translate(-20 -378.215)"/><line class="b" x1="222.265" y1="126.333" x2="222.265" y2="282.516"/><circle class="c" cx="36.929" cy="34.929" r="26.929"/><path class="b" d="M56.4,435.85" transform="translate(-20 -378.215)"/><line class="b" x1="170" y1="123.785" x2="169.463" y2="323.702"/><path class="b" d="M109.2,700.917C109.2,738.935,120.82,759,150.389,759" transform="translate(-20 -378.215)"/><path class="b" d="M149.333,759c30.626,0,40.13-19.009,40.13-58.083" transform="translate(-20 -378.215)"/><path class="b" d="M82.8,412.617c16.9,0,26.4,7.392,26.4,26.4" transform="translate(-20 -378.215)"/><line class="b" x1="89.204" y1="60.802" x2="89.204" y2="324.702"/><circle class="c" cx="567.699" cy="101.46" r="26.929"/><circle class="c" cx="435.27" cy="101.46" r="26.929"/><circle class="c" cx="301.786" cy="101.46" r="26.929"/><circle class="c" cx="169.358" cy="101.46" r="26.929"/><circle class="c" cx="699.071" cy="34.929" r="26.929"/><path class="d" d="M126.661,730.935" transform="translate(-20 -378.215)"/><line class="e" x1="688.543" y1="49.634" x2="688.543" y2="136.23"/><path class="e" d="M629.339,514.445c0,38.018,8.8,59.139,41.186,59.139" transform="translate(-20 -378.215)"/><path class="e" d="M669.469,573.584c30.625,0,39.074-21.065,39.074-60.139" transform="translate(-20 -378.215)"/><path class="e" d="M603.994,473.26c13.729,0,25.345,3.112,25.345,42.185" transform="translate(-20 -378.215)"/><path class="e" d="M629.339,515.5" transform="translate(-20 -378.215)"/><path class="e" d="M628.283,497.549" transform="translate(-20 -378.215)"/><line class="f" x1="557.593" y1="115.109" x2="557.593" y2="187.92"/><path class="f" d="M496.277,565.136c0,38.017,11.617,60.194,41.186,60.194" transform="translate(-20 -378.215)"/><path class="f" d="M536.407,625.33c30.625,0,41.186-21.121,41.186-60.194" transform="translate(-20 -378.215)"/><path class="f" d="M470.932,472.2c11.617-1.057,24.289,4.224,24.289,25.345" transform="translate(-20 -378.215)"/><line class="f" x1="475.221" y1="118.277" x2="476.277" y2="187.92"/><line class="g" x1="424.531" y1="119.333" x2="423.475" y2="233.33"/><path class="g" d="M363.215,610.546c0,38.017,11.617,59.138,41.186,59.138" transform="translate(-20 -378.215)"/><path class="g" d="M403.345,669.684c30.626,0,40.13-20.065,40.13-59.138" transform="translate(-20 -378.215)"/><path class="g" d="M337.87,472.2c11.265,0,25.345,7.392,25.345,26.4" transform="translate(-20 -378.215)"/><line class="g" x1="343.215" y1="119.389" x2="343.215" y2="233.33"/><line class="h" x1="292.525" y1="119.333" x2="292.525" y2="274.516"/><path class="h" d="M232.265,651.732c0,38.017,11.617,58.082,41.186,58.082" transform="translate(-20 -378.215)"/><path class="h" d="M272.4,709.814c30.626,0,40.13-19.009,40.13-58.082" transform="translate(-20 -378.215)"/><path class="h" d="M204.864,471.147c14.081,0,27.4,7.393,27.4,26.4" transform="translate(-20 -378.215)"/><line class="h" x1="212.265" y1="118.333" x2="212.265" y2="274.516"/><circle class="i" cx="26.929" cy="26.929" r="26.929"/><path class="j" d="M46.4,427.85" transform="translate(-20 -378.215)"/><line class="j" x1="160" y1="115.785" x2="159.463" y2="315.702"/><path class="j" d="M99.2,692.917C99.2,730.935,110.82,751,140.389,751" transform="translate(-20 -378.215)"/><path class="j" d="M139.333,751c30.626,0,40.13-19.009,40.13-58.083" transform="translate(-20 -378.215)"/><path class="j" d="M72.8,404.617c16.9,0,26.4,7.392,26.4,26.4" transform="translate(-20 -378.215)"/><line class="j" x1="79.204" y1="52.802" x2="79.204" y2="316.702"/><circle class="k" cx="557.699" cy="93.46" r="26.929"/><circle class="l" cx="425.27" cy="93.46" r="26.929"/><circle class="m" cx="291.786" cy="93.46" r="26.929"/><circle class="n" cx="159.358" cy="93.46" r="26.929"/><circle class="o" cx="689.071" cy="26.929" r="26.929"/></svg>