<svg height='100px' width='100px'  fill="#78cac3" xmlns="http://www.w3.org/2000/svg" xmlns:xlink="http://www.w3.org/1999/xlink" version="1.1" x="0px" y="0px" viewBox="0 0 512 512" style="enable-background:new 0 0 512 512;" xml:space="preserve"><g><g><g><g><path d="M248.451,442.074c-0.004,0-0.008,0-0.012,0c-47.326-0.19-91.792-18.767-125.205-52.307      c-33.423-33.55-51.83-78.104-51.83-125.457c0-39.45,12.651-76.812,36.585-108.045c23.173-30.24,56.002-52.604,92.442-62.972      c1.589-0.454,3.253,0.471,3.706,2.064c0.454,1.593-0.471,3.253-2.064,3.706C128.669,119.95,77.404,187.902,77.404,264.311      c0,94.332,76.737,171.385,171.06,171.764c1.657,0.007,2.995,1.355,2.988,3.012C251.444,440.739,250.103,442.074,248.451,442.074      z M297.79,435.226c-1.303,0-2.502-0.854-2.881-2.168c-0.46-1.592,0.457-3.255,2.049-3.715      c72.995-21.095,123.976-88.959,123.976-165.032c0-94.722-77.054-171.783-171.765-171.783c-1.657,0-3-1.343-3-3s1.343-3,3-3      c98.02,0,177.765,79.753,177.765,177.783c0,39.316-12.572,76.574-36.357,107.746c-23.026,30.177-55.683,52.568-91.952,63.05      C298.346,435.188,298.065,435.226,297.79,435.226z"></path></g><g><path d="M228.676,440.875c-0.116,0-0.232-0.007-0.349-0.021c-27.253-3.186-53.787-12.852-76.733-27.954      c-22.444-14.771-41.561-34.774-55.285-57.849c-0.485-0.815-0.556-1.813-0.19-2.688s1.124-1.527,2.045-1.756      c4.597-1.143,8.718-1.697,12.597-1.697c9.74,0,16.487,3.602,23.63,7.415c5.247,2.801,10.672,5.696,18.156,7.874      c21.387,6.243,22.992,16.752,24.281,25.195c0.717,4.697,1.284,8.407,5.031,11.165c1.497,1.105,3.722,1.664,6.619,1.664      c6.101,0,13.7-2.441,19.249-4.225c1.108-0.356,2.137-0.687,3.064-0.97c0.439-0.133,0.978-0.3,1.605-0.494      c6.536-2.025,21.842-6.768,31.388-6.768c8.939,0,10.273,4.365,10.273,6.967c0,2.895-1.699,6.306-5.346,10.735      c-4.368,5.31-7.926,9.058-10.785,12.068c-5.53,5.825-7.279,7.847-7.279,11.609c0,1.482,0.273,3.291,0.857,5.671      c0.124,0.329,0.191,0.685,0.191,1.057c0,1.657-1.343,3-3,3C228.689,440.875,228.682,440.875,228.676,440.875z M103.657,355.567      c26.8,42.616,71.607,71.735,121.241,78.794c-0.169-1.17-0.251-2.228-0.251-3.214c0-6.336,3.36-9.876,8.927-15.74      c2.793-2.942,6.27-6.604,10.504-11.751c3.692-4.483,3.979-6.432,3.979-6.922c0-0.104-0.013-0.161-0.018-0.175l0,0      c-0.002,0-0.735-0.792-4.255-0.792c-8.637,0-23.875,4.721-29.612,6.498c-0.642,0.199-1.191,0.369-1.634,0.504      c-0.896,0.273-1.897,0.596-2.975,0.941c-5.926,1.904-14.042,4.513-21.084,4.513c-4.208,0-7.632-0.954-10.179-2.835      c-5.743-4.226-6.624-9.997-7.401-15.089c-1.191-7.801-2.316-15.17-20.029-20.34c-8.081-2.352-14.043-5.534-19.303-8.342      c-7.02-3.748-12.565-6.708-20.804-6.708C108.527,354.91,106.179,355.127,103.657,355.567z"></path></g><g><path d="M186.488,294.69c-1.379,0-2.621-0.957-2.928-2.359c-0.354-1.619,0.671-3.218,2.289-3.572      c3.339-0.73,6.64-1.086,10.092-1.086c2.974,0,5.699,0.264,8.104,0.497c2.099,0.203,4.082,0.396,5.969,0.396      c5.688,0,12.229-1.305,24.012-16.899c6.256-8.276,9.122-10.126,12.156-12.083c1.858-1.199,3.614-2.332,6.538-5.281      c2.229-2.241,3.311-5.485,3.311-9.921c0-11.062-6.983-26.672-12.082-38.07c-2.226-4.976-4.148-9.273-5.296-12.639      c-4.235-12.346-6.446-19.029-6.446-24.14c0-6.322,3.357-9.855,8.919-15.708c2.8-2.946,6.285-6.614,10.529-11.773      c3.679-4.471,3.965-6.419,3.965-6.91c0-0.105-0.013-0.162-0.018-0.175l0,0c-0.002,0-0.735-0.792-4.25-0.792      c-8.631,0-23.865,4.722-29.6,6.499c-0.643,0.199-1.195,0.37-1.64,0.505c-1.185,0.357-2.354,0.717-3.509,1.073      c-7.146,2.2-13.896,4.277-19.417,4.277c-9.233,0-13.915-5.838-13.915-17.353c0-1.675,0.095-3.517,0.283-5.476      c0.848-7.249,1.239-12.791,1.239-17.504c0-0.397-0.003-0.789-0.009-1.176c-50.03,20.236-87.659,62.772-101.555,114.874      c6.781,1.589,15.358,2.342,26.653,2.357c10.69,0.015,35.963,2.037,39.76,20.435c0.167,0.813,0.249,1.684,0.249,2.665      c0,3.157-0.857,6.859-1.851,11.146c-1.192,5.147-2.543,10.98-2.543,16.781c0,4.327,0.745,8.069,2.278,11.439      c0.686,1.509,0.019,3.287-1.489,3.973c-1.508,0.688-3.287,0.02-3.973-1.488c-1.895-4.167-2.816-8.722-2.816-13.924      c0-6.486,1.434-12.675,2.698-18.135c0.91-3.928,1.696-7.32,1.696-9.792c0-0.561-0.042-1.05-0.125-1.453      c-2.989-14.478-26.697-15.637-33.893-15.647c-13.497-0.018-23.39-1.077-31.133-3.333c-1.546-0.45-2.461-2.041-2.073-3.604      c14.071-56.66,55.141-102.797,109.864-123.418c0.881-0.333,1.869-0.231,2.665,0.273c0.796,0.505,1.308,1.354,1.383,2.294      c0.142,1.768,0.214,3.696,0.214,5.731c0,4.952-0.405,10.716-1.273,18.139c-0.163,1.707-0.249,3.356-0.249,4.841      c0,10.475,4.085,11.353,7.915,11.353c4.619,0,10.95-1.948,17.652-4.011c1.165-0.358,2.345-0.722,3.537-1.082      c0.431-0.131,0.971-0.298,1.601-0.493c6.534-2.025,21.837-6.768,31.376-6.768c8.934,0,10.268,4.365,10.268,6.966      c0,2.894-1.694,6.301-5.331,10.722c-4.381,5.325-7.947,9.078-10.813,12.094c-5.521,5.811-7.268,7.827-7.268,11.575      c0,4.146,2.212,10.798,6.123,22.197c1.061,3.11,2.931,7.291,5.096,12.131c5.616,12.554,12.605,28.178,12.605,40.521      c0,6.018-1.7,10.778-5.053,14.148c-3.38,3.41-5.592,4.837-7.542,6.096c-2.687,1.733-5.007,3.229-10.622,10.658      c-12.091,16.003-20.257,19.282-28.798,19.282c-2.178,0-4.3-0.206-6.548-0.424c-2.38-0.23-4.841-0.469-7.525-0.469      c-3.016,0-5.897,0.31-8.809,0.947C186.916,294.667,186.7,294.69,186.488,294.69z"></path></g><g><path d="M397.165,254.644c-4.678,0-9.376-2.525-14.786-7.946c-6.122-6.134-9.098-13.625-9.098-22.899      c0-6.477,1.431-12.657,2.692-18.11c0.908-3.926,1.693-7.317,1.693-9.79c0-0.505-0.034-0.951-0.102-1.328      c-4.611-14.616-21.682-15.338-39.751-16.101c-16.754-0.708-34.078-1.439-41.35-14.414c-1.505-2.703-2.267-5.65-2.267-8.768      c0-9.877,7.545-19.838,14.202-28.626c3.231-4.265,6.283-8.294,7.944-11.648c1.438-3.081,2.783-6.478,3.97-10.034      c0.271-0.812,0.876-1.469,1.662-1.807c0.787-0.337,1.681-0.323,2.455,0.04c26.752,12.515,50.2,31.724,67.81,55.55      c17.922,24.249,29.418,52.833,33.246,82.661c0.205,1.599-0.891,3.075-2.48,3.341c-1.949,0.326-3.855,0.782-5.826,1.395      c-3.241,0.999-5.947,2.625-8.563,4.196C404.946,252.56,401.479,254.644,397.165,254.644z M324.882,110.082      c-0.967,2.62-2.015,5.143-3.13,7.533c-1.943,3.925-5.161,8.173-8.568,12.671c-6.087,8.035-12.985,17.142-12.985,25.003      c0,2.113,0.492,4.023,1.505,5.841c5.631,10.048,20.56,10.679,36.364,11.346c18.51,0.782,39.489,1.667,45.278,20.478      c0.027,0.089,0.051,0.18,0.07,0.271c0.169,0.813,0.251,1.688,0.251,2.674c0,3.158-0.856,6.858-1.848,11.143      c-1.189,5.14-2.538,10.965-2.538,16.757c0,7.604,2.402,13.708,7.344,18.661c5.533,5.543,8.665,6.185,10.54,6.185      c2.65,0,5.171-1.515,8.362-3.432c2.788-1.675,5.947-3.573,9.88-4.785c1.263-0.393,2.506-0.729,3.75-1.014      C411.023,183.172,376.038,135.198,324.882,110.082z"></path></g><g><path d="M303.006,433.621c-0.713,0-1.414-0.254-1.968-0.735c-1.858-1.615-3.4-3.515-4.58-5.646      c-1.498-2.689-2.26-5.637-2.26-8.753c0-9.87,7.538-19.822,14.189-28.604c3.236-4.273,6.293-8.309,7.956-11.672      c5.649-12.25,8.91-26.317,8.91-38.522c0-4.488-0.438-8.71-1.302-12.547c-0.969-4.303-1.383-7.155-1.383-9.54      c0-8.729,5.878-11.975,16.03-14.633c4.963-1.296,9.381-1.926,13.506-1.926c9.748,0,16.493,3.604,23.634,7.422      c5.245,2.804,10.669,5.702,18.158,7.884c9.557,2.786,16.009,6.663,19.726,11.854c0.599,0.837,0.728,1.922,0.341,2.875      c-19.819,48.854-59.925,86.177-110.034,102.398C303.627,433.573,303.315,433.621,303.006,433.621z M352.105,307.043      c-3.607,0-7.528,0.566-11.988,1.73c-10.771,2.82-11.548,5.217-11.548,8.828c0,1.917,0.37,4.375,1.236,8.222      c0.961,4.27,1.448,8.935,1.448,13.865c0,13.042-3.461,28.026-9.496,41.109c-1.951,3.945-5.174,8.201-8.587,12.707      c-6.081,8.028-12.973,17.128-12.973,24.981c0,2.111,0.492,4.021,1.505,5.84c0.586,1.059,1.272,2.01,2.08,2.88      c47.072-15.775,84.811-50.905,103.955-96.768c-3.073-3.454-8.173-6.188-15.52-8.33c-8.088-2.355-14.049-5.541-19.309-8.353      C365.894,310.006,360.351,307.043,352.105,307.043z"></path></g><g><path d="M249.172,488.996c-0.003,0,0,0-0.004,0c-63.522,0-124.361-27.071-166.917-74.272c-0.552-0.612-0.828-1.426-0.763-2.247      c0.066-0.822,0.467-1.581,1.109-2.099c5.178-4.168,8.148-10.36,8.148-16.989c0-12.041-9.789-21.838-21.82-21.838      c-4.156,0-8.209,1.173-11.722,3.392c-0.696,0.439-1.543,0.572-2.339,0.372c-0.797-0.202-1.477-0.724-1.879-1.441      c-12.897-23.008-21.544-47.874-25.702-73.909c-0.261-1.636,0.853-3.174,2.489-3.436c1.643-0.26,3.175,0.854,3.436,2.49      c3.889,24.353,11.814,47.654,23.57,69.31c3.776-1.824,7.92-2.777,12.148-2.777c15.34,0,27.82,12.488,27.82,27.838      c0,7.385-2.888,14.344-8.018,19.527c41.313,44.573,99.614,70.08,160.44,70.08c53.776,0.001,105.464-19.691,145.543-55.448      c1.236-1.104,3.133-0.995,4.235,0.241c1.104,1.236,0.995,3.133-0.241,4.235C357.528,468.762,304.42,488.996,249.172,488.996z       M429.981,395.619c-0.601,0-1.208-0.18-1.735-0.555c-1.351-0.96-1.667-2.833-0.707-4.184      c23.102-32.492,36.813-70.574,39.743-110.309c-7.518-1.645-13.04-8.278-13.04-16.262c0-7.993,5.522-14.634,13.04-16.278      C458.938,134.734,364.369,46.295,250.494,45.611c-1.106,10.213-9.786,18.189-20.296,18.189c-9.221,0-17.162-6.172-19.604-14.788      C111.225,66.659,37.529,148.845,30.937,249.851c-0.108,1.654-1.541,2.914-3.189,2.798c-1.653-0.108-2.906-1.536-2.798-3.189      c3.297-50.516,23.94-98.984,58.126-136.477c33.964-37.25,79.915-62.243,129.389-70.377c0.807-0.132,1.632,0.07,2.286,0.56      c0.654,0.49,1.08,1.226,1.179,2.037c0.876,7.182,7.01,12.598,14.269,12.598c7.928,0,14.381-6.425,14.415-14.335l-0.031-0.708      c-0.036-0.812,0.26-1.604,0.818-2.194s1.333-0.929,2.146-0.938l1.59-0.018c118.604,0,217.125,92.62,224.324,210.859      c0.05,0.809-0.23,1.604-0.776,2.203s-1.312,0.952-2.122,0.978c-5.786,0.186-10.318,4.87-10.318,10.664      c0,5.784,4.533,10.461,10.319,10.647c0.81,0.025,1.575,0.379,2.121,0.978c0.546,0.6,0.826,1.394,0.776,2.203      c-2.549,41.863-16.736,82.051-41.029,116.219C431.845,395.181,430.92,395.619,429.981,395.619z"></path></g><g><path d="M230.198,63.801c-11.239,0-20.383-9.151-20.383-20.398s9.144-20.398,20.383-20.398c11.257,0,20.415,9.151,20.415,20.398      S241.455,63.801,230.198,63.801z M230.198,29.004c-7.931,0-14.383,6.459-14.383,14.398s6.452,14.398,14.383,14.398      c7.948,0,14.415-6.459,14.415-14.398S238.146,29.004,230.198,29.004z"></path></g><g><path d="M470.871,280.956c-9.169,0-16.629-7.467-16.629-16.646c0-9.188,7.46-16.662,16.629-16.662      c9.188,0,16.662,7.475,16.662,16.662C487.533,273.489,480.059,280.956,470.871,280.956z M470.871,253.648      c-5.86,0-10.629,4.783-10.629,10.662c0,5.87,4.769,10.646,10.629,10.646c5.879,0,10.662-4.775,10.662-10.646      C481.533,258.432,476.75,253.648,470.871,253.648z"></path></g><g><path d="M68.926,421.211c-15.361,0-27.857-12.481-27.857-27.822c0-15.35,12.497-27.838,27.857-27.838      c15.34,0,27.82,12.488,27.82,27.838C96.747,408.729,84.267,421.211,68.926,421.211z M68.926,371.551      c-12.052,0-21.857,9.797-21.857,21.838c0,12.033,9.805,21.822,21.857,21.822c12.032,0,21.82-9.789,21.82-21.822      C90.747,381.348,80.958,371.551,68.926,371.551z"></path></g><g><path d="M63.786,341.995c-1.187,0-2.31-0.709-2.782-1.876c-9.726-24.052-14.657-49.558-14.657-75.809c0-1.657,1.343-3,3-3      s3,1.343,3,3c0,25.477,4.784,50.226,14.22,73.559c0.621,1.536-0.121,3.285-1.657,3.906      C64.541,341.925,64.16,341.995,63.786,341.995z"></path></g><g><path d="M248.965,466.931c-1.657,0-3-1.343-3-3s1.343-3,3-3c54.907,0,107.707-23.194,144.861-63.636      c1.12-1.222,3.019-1.301,4.238-0.18c1.221,1.121,1.301,3.019,0.18,4.238c-18.795,20.459-41.127,36.576-66.374,47.905      C305.736,460.984,277.843,466.931,248.965,466.931z"></path></g><g><path d="M434.181,192.694c-1.188,0-2.313-0.71-2.783-1.88c-26.273-65.207-85.774-111.683-155.283-121.292      c-1.641-0.227-2.787-1.741-2.561-3.382c0.227-1.642,1.733-2.794,3.383-2.561c71.633,9.902,132.951,57.797,160.025,124.993      c0.619,1.537-0.124,3.285-1.661,3.904C434.934,192.624,434.554,192.694,434.181,192.694z"></path></g></g></g></g></svg>