<svg id="Layer_1" data-name="Layer 1" xmlns="http://www.w3.org/2000/svg" viewBox="0 0 432.19 125.73">
  <defs>
    <style>
      .cls-1{fill:#2cbb97}
    </style>
  </defs>
  <path class="cls-1" d="M511.2 352.67c-3.5 0-7 .17-10.49-.11a4.37 4.37 0 0 1-3.08-2.15c-2.55-5.87-7.23-8.78-13-7.71s-9.1 5.4-9.15 11.91v8.79c-5.95-7.22-13.24-10.86-22.53-10.91 0-2.58.11-4.82 0-7a11.18 11.18 0 0 0-11.08-10.56 10.85 10.85 0 0 0-11.3 10.63c-.2 5.36-.06 10.74-.07 16.12v4.09c-6.15-8.15-13.64-12.72-23.52-13s-17.71 3.92-24.32 12.51v-4.14c.25-4.7.9-9.42.64-14.09a14.79 14.79 0 0 0-2.9-7.47c-3.32-4.44-9-5.67-14.19-3.7-5 1.92-7.93 6.68-7.84 12.47.07 5.1 0 10.2 0 15.2-4.75-6.69-11.41-10.76-20.2-10.81s-15.31 4.09-21.11 11.7c0-6.86.09-12.46 0-18.07-.13-6.79-4.85-11.46-11.32-11.41-6.11.05-10.82 4.87-11.06 11.38-.08 2.21 0 4.42 0 6.79-14.29-1.67-24.11 4.1-30.57 16.82-5.51-11-13.82-17.2-25.9-17.17s-20.33 6.25-25.57 17.07a28.35 28.35 0 0 0-50.24-3.47 21.37 21.37 0 0 0-3.5-3.26c-2.44-1.43-3-3.11-2.38-5.9a11.78 11.78 0 0 0-3.92-11.57c-10.44-9.45-22.6-13.34-36.34-9-13.23 4.14-21.6 13.35-24.14 27a76.93 76.93 0 0 0-.83 18.27c.81 14.73 8.29 25.38 21.87 30.87 13.39 5.41 26.34 3.65 37.56-5.85 3.65-3.08 6.43-7.19 9.61-10.84 4.12 11.45 12.1 18.71 24.88 19.4s21.6-5.84 27.36-17.27c5.44 11.26 13.76 17.37 25.94 17.32s20.14-6.54 25.64-17.26c5.15 10.43 12.7 16.49 23.88 17.23s19.47-4.43 26-13.84c.15 1.21.22 1.58.24 1.95.38 7.51 4.79 12.08 11.55 11.94s10.92-5 10.95-12.52c0-5.37-.06-10.75.08-16.12 0-1 .89-2 1.36-2.93.47 1 1.33 2 1.34 3 .12 8 0 16 .1 24 .19 12.76 9.58 22.48 22.33 23.28 8.9.57 14.08-5.25 12.84-14.06-.25-1.76.1-4.64 1.24-5.39 4.05-2.65 6.41-6.06 6.81-11.17 2.49 1.68 3 3 1.23 5.32a20 20 0 0 0-3.56 6.93c-2.4 9.34-2.76 18.81.49 28 2.35 6.64 7.2 11.37 13.63 14.23a27.87 27.87 0 0 0 30.64-5.18c9.28-8.7 9.18-22.5 7-32.49a9.82 9.82 0 0 1 1.39-7.95c4.46 3.33 9.06 4.22 13.84 1.56s5.77-7.15 5.58-12.22c-.15-4.24-.17-8.5 0-12.74.08-1.73.93-3.41 1.43-5.12.44 1.78 1.24 3.54 1.28 5.32.15 7.25 0 14.5.09 21.75a23.54 23.54 0 0 0 24.31 23.25 11.19 11.19 0 0 0 11-13.09 50 50 0 0 1 0-6.49 22.26 22.26 0 0 1 2.28.17c17.44 3.47 30.59-8.26 29.64-26.07-.4-7.64-.18-15.33.17-23s-4.49-13.08-12.11-13.17zm-386.76 48.65c-13.23-.92-23.88-10.24-27-23.67a30.58 30.58 0 0 1 14.1-33.2 29.83 29.83 0 0 1 35.17 3.6 25.56 25.56 0 0 1 2.34 2.43c2.78 3.29 2.83 6.49.18 8.94s-5.43 2.24-8.52-.85a18.8 18.8 0 0 0-14.83-5.88A18.52 18.52 0 0 0 108.1 369c-1.11 9.66 4.5 18.07 13.68 20.5s18.79-2 22.44-10.42a12 12 0 0 0 .42-2h-10.58c-4-.07-6.45-2.34-6.38-5.76s2.31-5.39 6.28-5.45c5.75-.08 11.5-.09 17.25 0 4.43.08 6.45 2.38 6.4 6.92-.2 16.85-15.23 29.77-33.17 28.53zm61.86.09a21.1 21.1 0 0 1-21.19-21.57c0-12.6 9.16-21.64 21.85-21.57 12.29.07 21.46 9.35 21.43 21.69s-9.5 21.52-22.09 21.45zm51.68 0A21 21 0 0 1 216.7 380c0-12.67 9-21.72 21.7-21.69 12.32 0 21.53 9.24 21.54 21.57s-9.38 21.55-21.94 21.53zM311.35 382c-.62 11.41-10.85 19.94-22.88 19.42-11.52-.51-20.27-9.95-20.18-21.79s8.89-21 20.22-21.33c4.31-.13 6.73 1.59 7 5 .34 3.89-1.48 5.83-6 6.4-6.14.78-10.3 5.47-9.81 11.08a10.43 10.43 0 0 0 10.4 9.34c5.77-.14 10-4.6 10-10.86.07-10.73 0-21.47 0-32.21 0-4.25 2.29-6.67 5.95-6.55 3.26.12 5.27 2.24 5.33 5.95.08 5.87 0 11.74 0 17.61h-.08c.1 5.94.37 11.94.05 17.94zm51.94 38.19A17.63 17.63 0 0 1 345.2 403c-.24-8.36-.07-16.73-.12-25.1 0-5.2-2.75-8.33-7.09-8.23s-6.72 3-6.76 8.16v16.86c-.06 4.46-2.14 6.79-5.77 6.75s-5.56-2.25-5.62-6.87c-.07-6-.12-12 0-18 .22-10.95 7.81-18.37 18.56-18.28 10.54.09 17.95 7.55 18.09 18.34.09 6.49.32 13 0 19.48-.55 9.77 4 16 12.88 19.91-1.03 3.03-3.16 4.1-6.08 4.15zm13.78-25.12c-.07 4.07-2.45 6.4-6.24 6.33s-5.88-2.19-5.91-6.24q-.14-15.18 0-30.35c0-4.28 2.18-6.41 6.11-6.42 4.11 0 6 1.92 6.05 6.33.06 5 0 10 0 15s.06 10.21-.01 15.33zm.93-47.27a7 7 0 1 1-14.07-.67 7 7 0 0 1 14.07.67zm49.76 52.35c-.17 8.38-6.09 14.25-14.53 14.43-2.37.05-4.75-.05-7.12 0a10.23 10.23 0 0 0-.69 20.44c5.61.44 10.11-3.68 11.14-9.43.39-2.16 1.75-4.87 3.52-5.93 3.54-2.14 7.48.8 7.67 5.19.49 10.95-8.49 20.73-19.73 21.49-12.07.82-22.43-7.56-23.36-18.88-1.15-14.11 8-24.22 22.16-24.2 10.66 0 9.64.21 9.63-9.87 0-4.5.07-9 0-13.49a10.28 10.28 0 0 0-20.51-1c-.42 5.72 3.45 10.33 9.33 11.12 4.84.65 6.94 2.7 6.49 6.35s-3.2 5.34-7.86 4.95c-11.74-1-19.75-10.54-19.26-22.95.46-11.67 9.65-20.18 21.73-20.12 11.8.06 20.9 8.6 21.34 20.15.14 3.74 0 7.49 0 11.24h.06c-.04 3.52.02 7.02-.05 10.51zM485.82 415c-.22 3.18-2.54 5.13-6.17 5.19a17.81 17.81 0 0 1-18.2-17.19c-.24-8.37-.07-16.75-.12-25.12 0-5.21-2.73-8.35-7.06-8.26s-6.75 3-6.79 8.13v16.87c-.06 4.47-2.13 6.8-5.75 6.77s-5.62-2.28-5.63-6.87q-.09-23.8 0-47.61c0-4.32 1.94-6.45 5.56-6.47s5.68 2.09 5.81 6.3c.12 4 0 7.95 0 12.46 8.79-2 16.43-1.13 21.43 6.17a24.08 24.08 0 0 1 3.69 11.43c.56 7.71.14 15.49.17 23.23 0 6 1.71 7.93 7.75 8.83 3.3.5 5.49 3.05 5.31 6.14zm15.05-13.61c-10.24.71-19.07-6.07-19.57-15.89-.54-10.58-.26-21.22-.16-31.83a5.33 5.33 0 0 1 5.31-5.63c3.21-.11 5.54 2.06 5.88 5.53.14 1.45.16 2.92.25 4.73h18.25c4.56 0 6.76 2.05 6.79 6.09s-2 6.1-6.64 6.12h-18.3c0 5-.4 9.84.14 14.57.38 3.31 3.28 4.86 6.61 4.95a6.75 6.75 0 0 0 6.8-5.33c.16-.73.1-1.5.2-2.24.43-3.39 2.86-5.52 6.05-5.34 3 .17 5 2.46 5.17 5.79a17.66 17.66 0 0 1-16.78 18.45z" transform="translate(-91.1 -334.8)"/>
  <path class="cls-1" d="M197.07 379.75a10.32 10.32 0 1 1-10.36-10.15 10.43 10.43 0 0 1 10.36 10.15zM238.37 369.6A10.28 10.28 0 1 1 228 379.7a10.37 10.37 0 0 1 10.37-10.1z" transform="translate(-91.1 -334.8)"/>
</svg>
