<svg xmlns="http://www.w3.org/2000/svg" xmlns:xlink="http://www.w3.org/1999/xlink" viewBox="0 0 502.43 139.1"><defs><style>.a{fill:#1beac7;}.b{opacity:0.9;isolation:isolate;}.c{fill:#fff200;}</style></defs><title>logo</title><path class="a" d="M420.1,17.9c-3.5,0-7,.2-10.5-.1a4.52,4.52,0,0,1-3.1-2.1c-2.5-5.9-7.2-8.8-13-7.7s-9.1,5.4-9.1,11.9v8.8c-6-7.2-13.2-10.9-22.5-10.9,0-2.6.1-4.8,0-7A11.25,11.25,0,0,0,350.8.2a10.91,10.91,0,0,0-11.3,10.4v.2c-.2,5.4-.1,10.7-.1,16.1V31c-6.1-8.1-13.6-12.7-23.5-13s-17.7,3.9-24.3,12.5V26.4c.3-4.7.9-9.4.6-14.1a15.74,15.74,0,0,0-2.9-7.5c-3.3-4.4-9-5.7-14.2-3.7-5,1.9-7.9,6.7-7.8,12.5.1,5.1,0,10.2,0,15.2C262.5,22.1,255.9,18,247.1,18S231.8,22,226,29.6c0-6.9.1-12.5,0-18.1C225.9,4.7,221.1,0,214.7.1c-6.1,0-10.8,4.9-11.1,11.4-.1,2.2,0,4.4,0,6.8-14.3-1.7-24.1,4.1-30.6,16.8-5.5-11-13.8-17.2-25.9-17.2S126.8,24.2,121.5,35a28.39,28.39,0,0,0-50.3-3.5,22,22,0,0,0-3.5-3.3c-2.4-1.4-3-3.1-2.4-5.9a11.89,11.89,0,0,0-3.9-11.6C51,1.2,38.8-2.6,25.1,1.7,11.9,6,3.6,15.2,1,28.9A74.7,74.7,0,0,0,.2,47.2C1,61.9,8.5,72.5,22.1,78c13.4,5.4,26.3,3.6,37.6-5.9,3.6-3.1,6.4-7.2,9.6-10.8,4.1,11.5,12,18.7,24.8,19.4s21.6-5.8,27.4-17.3c5.4,11.3,13.8,17.4,25.9,17.3s20.1-6.5,25.6-17.3c5.1,10.4,12.7,16.5,23.9,17.2s19.5-4.4,26-13.8c.1,1.2.2,1.6.2,2,.4,7.5,4.8,12.1,11.5,11.9s10.9-5,11-12.5c0-5.4-.1-10.8.1-16.1,0-1,.9-2,1.4-2.9.5,1,1.3,2,1.3,3,.1,8,0,16,.1,24a23.26,23.26,0,0,0,22.3,23.3c8.9.6,14.1-5.3,12.8-14.1-.3-1.8.1-4.6,1.2-5.4a13.9,13.9,0,0,0,6.8-11.2c2.5,1.7,3,3,1.2,5.3a22.74,22.74,0,0,0-3.6,6.9c-2.4,9.3-2.8,18.8.5,28a24.39,24.39,0,0,0,13.6,14.2,27.71,27.71,0,0,0,30.6-5.2c9.3-8.7,9.2-22.5,7-32.5a9.92,9.92,0,0,1,1.4-8c4.5,3.3,9.1,4.2,13.8,1.6s5.8-7.1,5.6-12.2c-.1-4.2-.2-8.5,0-12.7a24.24,24.24,0,0,1,1.4-5.1c.4,1.8,1.2,3.5,1.3,5.3.1,7.3,0,14.5.1,21.8a23.62,23.62,0,0,0,23.8,23.3h.5A11.18,11.18,0,0,0,400,88.3a12.25,12.25,0,0,0-.2-1.9c-.1-2.2-.1-4.3,0-6.5a17.85,17.85,0,0,1,2.3.2C419.8,83.6,433,71.9,432,54a220.83,220.83,0,0,1,.2-23C432.6,23.3,427.7,18,420.1,17.9ZM33.3,66.5c-13.2-.9-23.9-10.2-27-23.7A30.6,30.6,0,0,1,20.4,9.6a29.87,29.87,0,0,1,35.2,3.7c.8.8,1.6,1.6,2.3,2.4,2.8,3.3,2.8,6.5.2,8.9s-5.4,2.2-8.5-.9a18.82,18.82,0,0,0-14.8-5.9A18.56,18.56,0,0,0,17,34.1c-1.1,9.7,4.5,18.1,13.7,20.5s18.8-2,22.4-10.4a14.16,14.16,0,0,0,.4-2H42.9c-4-.1-6.4-2.3-6.4-5.8s2.3-5.4,6.3-5.5c5.8-.1,11.5-.1,17.3,0,4.4.1,6.4,2.4,6.4,6.9C66.3,54.8,51.3,67.8,33.3,66.5Zm61.9.1A21.1,21.1,0,0,1,74,45.6V45c0-12.6,9.2-21.6,21.9-21.6,12.3.1,21.5,9.4,21.4,21.7S107.8,66.7,95.2,66.6Zm51.7,0a21,21,0,0,1-21.3-20.7v-.7c0-12.7,9-21.7,21.7-21.7,12.3,0,21.5,9.2,21.5,21.6s-9.3,21.5-21.9,21.5Zm73.4-19.4c-.6,11.4-10.9,19.9-22.9,19.4-11.5-.5-20.3-10-20.2-21.8s8.9-21,20.2-21.3c4.3-.1,6.7,1.6,7,5,.3,3.9-1.5,5.8-6,6.4-6.1.8-10.3,5.5-9.8,11.1A10.41,10.41,0,0,0,199,55.3c5.8-.1,10-4.6,10-10.9.1-10.7,0-21.5,0-32.2,0-4.3,2.3-6.7,6-6.5,3.3.1,5.3,2.2,5.3,6,.1,5.9,0,11.7,0,17.6h-.1C220.3,35.2,220.6,41.2,220.3,47.2Zm51.9,38.2a17.65,17.65,0,0,1-18.1-17.2h0c-.2-8.4-.1-16.7-.1-25.1,0-5.2-2.8-8.3-7.1-8.2s-6.7,3-6.8,8.2V60c-.1,4.5-2.1,6.8-5.8,6.8s-5.6-2.3-5.6-6.9q-.15-9,0-18c.2-11,7.8-18.4,18.6-18.3,10.5.1,18,7.5,18.1,18.3.1,6.5.3,13,0,19.5-.5,9.8,4,16,12.9,19.9-1.1,3-3.2,4-6.1,4.1ZM286,60.3c-.1,4.1-2.5,6.4-6.2,6.3s-5.9-2.2-5.9-6.2c-.1-10.1-.1-20.2,0-30.4,0-4.3,2.2-6.4,6.1-6.4,4.1,0,6,1.9,6,6.3.1,5,0,10,0,15V60.3Zm.9-47.3a7.06,7.06,0,1,1-6.7-7.4A7.05,7.05,0,0,1,286.9,13Zm49.8,52.4c-.2,8.4-6.1,14.3-14.5,14.4h-7.1a10.26,10.26,0,0,0-.7,20.5c5.6.4,10.1-3.7,11.1-9.4.4-2.2,1.8-4.9,3.5-5.9,3.5-2.1,7.5.8,7.7,5.2.5,11-8.5,20.7-19.7,21.5-12.1.8-22.4-7.6-23.4-18.9-1.1-14.1,8-24.2,22.2-24.2,10.7,0,9.6.2,9.6-9.9,0-4.5.1-9,0-13.5a10.27,10.27,0,0,0-20.5-1c-.4,5.7,3.5,10.3,9.3,11.1,4.8.6,6.9,2.7,6.5,6.4s-3.2,5.3-7.9,5c-11.7-1-19.8-10.5-19.3-23,.5-11.7,9.6-20.2,21.7-20.1,11.8.1,20.9,8.6,21.3,20.1.1,3.7,0,7.5,0,11.2h.1c0,3.5.1,7,.1,10.5Zm58,14.8c-.2,3.2-2.5,5.1-6.2,5.2a17.8,17.8,0,0,1-18.2-17.2c-.2-8.4-.1-16.8-.1-25.1,0-5.2-2.7-8.4-7.1-8.3s-6.8,3-6.8,8.1V59.8c-.1,4.5-2.1,6.8-5.8,6.8s-5.6-2.3-5.6-6.9c-.1-15.9-.1-31.7,0-47.6,0-4.3,1.9-6.5,5.6-6.5s5.7,2.1,5.8,6.3c.1,4,0,8,0,12.5,8.8-2,16.4-1.1,21.4,6.2A24.41,24.41,0,0,1,381.4,42c.6,7.7.1,15.5.2,23.2,0,6,1.7,7.9,7.8,8.8C392.7,74.6,394.9,77.1,394.7,80.2Zm15.1-13.6c-10.2.7-19.1-6.1-19.6-15.9-.5-10.6-.3-21.2-.2-31.8a5.28,5.28,0,0,1,5-5.6h.3c3.2-.1,5.5,2.1,5.9,5.5.1,1.5.2,2.9.3,4.7h18.3c4.6,0,6.8,2,6.8,6.1s-2,6.1-6.6,6.1H401.7c0,5-.4,9.8.1,14.6.4,3.3,3.3,4.9,6.6,5a6.69,6.69,0,0,0,6.8-5.3,16.35,16.35,0,0,0,.2-2.2,5.6,5.6,0,0,1,6-5.3c3,.2,5,2.5,5.2,5.8a17.74,17.74,0,0,1-16.8,18.3Z" transform="translate(0.04 13.42)"/><path class="a" d="M106,45A10.29,10.29,0,0,1,95.9,55.5,10.46,10.46,0,0,1,85.3,45.3,10.29,10.29,0,0,1,95.4,34.8h.1A10.5,10.5,0,0,1,106,45Z" transform="translate(0.04 13.42)"/><path class="a" d="M147.3,34.8A10.3,10.3,0,1,1,136.9,45v-.1A10.33,10.33,0,0,1,147.3,34.8Z" transform="translate(0.04 13.42)"/><image class="b" width="858" height="847" transform="translate(427.84) scale(0.09)" xlink:href="4C055ADC.png"/><path class="c" d="M471.6,38.24a21.31,21.31,0,0,1-3-42.4c-1.1-.1-2.3-.2-3.4-.2A27.8,27.8,0,1,0,493,23.44c0-1.2-.1-2.3-.2-3.4A21.6,21.6,0,0,1,471.6,38.24Z" transform="translate(0.04 13.42)"/></svg>