<svg xmlns="http://www.w3.org/2000/svg" viewBox="0 0 255.767 859.433"><defs><style>.a,.b,.c,.d,.e,.f,.g{fill:none;stroke-miterlimit:10;}.a,.b{stroke:#8fd7f3;}.a{stroke-width:6px;}.b,.c,.d,.e,.f,.g{stroke-width:8px;}.c{stroke:#65b2f9;}.d{stroke:#81e67f;}.e{stroke:#ffb16f;}.f{stroke:#ff808d;}.g{stroke:#c883ff;}.h{font-size:29.866px;fill:#9c9c9c;font-family:MyriadPro-Regular, Myriad Pro;}</style></defs><title>sleep-cycle</title><path class="a" d="M145.856,367.591" transform="translate(-117.735 -236.791)"/><path class="b" d="M314.127,272.181" transform="translate(-117.735 -236.791)"/><circle class="b" cx="219.55" cy="36.217" r="32.217"/><line class="b" x1="188.444" y1="193.209" x2="71.953" y2="194.286"/><path class="b" d="M191.573,335.07c-45.481-.327-69.584,13.4-69.839,48.772" transform="translate(-117.735 -236.791)"/><path class="b" d="M121.744,382.579c-.264,36.637,22.4,48.171,69.139,48.506" transform="translate(-117.735 -236.791)"/><path class="b" d="M339.379,304c-.145,20.214-6.755,31.485-29.5,31.321" transform="translate(-117.735 -236.791)"/><line class="b" x1="194.541" y1="98.548" x2="71.446" y2="98.262"/><path class="c" d="M304.9,430.989" transform="translate(-117.735 -236.791)"/><path class="a" d="M168.856,525.091" transform="translate(-117.735 -236.791)"/><path class="b" d="M314.127,429.681" transform="translate(-117.735 -236.791)"/><circle class="c" cx="219.55" cy="193.717" r="32.217"/><line class="c" x1="188.444" y1="350.709" x2="94.953" y2="351.786"/><path class="c" d="M214.573,492.57c-45.481-.327-69.584,13.4-69.839,48.772" transform="translate(-117.735 -236.791)"/><path class="c" d="M144.744,540.079c-.264,36.637,22.4,48.171,69.139,48.506" transform="translate(-117.735 -236.791)"/><path class="c" d="M339.379,461.5c-.145,20.214-6.755,31.485-29.5,31.321" transform="translate(-117.735 -236.791)"/><line class="c" x1="194.541" y1="256.048" x2="94.446" y2="255.762"/><path class="c" d="M304.9,588.489" transform="translate(-117.735 -236.791)"/><path class="b" d="M314.127,587.181" transform="translate(-117.735 -236.791)"/><path class="d" d="M192.856,682.591" transform="translate(-117.735 -236.791)"/><circle class="d" cx="219.55" cy="351.217" r="32.217"/><line class="d" x1="188.444" y1="508.209" x2="118.953" y2="509.286"/><path class="d" d="M238.573,650.07c-45.481-.327-69.584,13.4-69.839,48.772" transform="translate(-117.735 -236.791)"/><path class="d" d="M168.744,697.579c-.264,36.637,22.4,48.171,69.139,48.506" transform="translate(-117.735 -236.791)"/><path class="d" d="M339.379,619c-.145,20.214-6.755,31.485-29.5,31.321" transform="translate(-117.735 -236.791)"/><line class="d" x1="194.541" y1="413.548" x2="118.446" y2="413.262"/><path class="c" d="M304.9,745.989" transform="translate(-117.735 -236.791)"/><path class="e" d="M216.856,840.091" transform="translate(-117.735 -236.791)"/><circle class="e" cx="219.55" cy="508.717" r="32.217"/><path class="e" d="M314.127,744.681" transform="translate(-117.735 -236.791)"/><line class="e" x1="188.444" y1="665.709" x2="142.953" y2="666.786"/><path class="e" d="M262.573,807.57c-45.481-.327-69.584,13.4-69.839,48.772" transform="translate(-117.735 -236.791)"/><path class="e" d="M192.744,855.079c-.264,36.637,22.4,48.171,69.139,48.506" transform="translate(-117.735 -236.791)"/><path class="e" d="M339.379,776.5c-.145,20.214-6.755,31.485-29.5,31.321" transform="translate(-117.735 -236.791)"/><line class="e" x1="194.541" y1="571.048" x2="142.446" y2="570.762"/><path class="c" d="M304.9,903.489" transform="translate(-117.735 -236.791)"/><line class="f" x1="186.361" y1="823.209" x2="166.869" y2="824.286"/><path class="g" d="M336.136,1092.223a32.216,32.216,0,1,1,32.448-31.984,32.216,32.216,0,0,1-32.448,31.984" transform="translate(-117.735 -236.791)"/><path class="f" d="M245.618,997.591" transform="translate(-117.735 -236.791)"/><path class="f" d="M316.618,902.181" transform="translate(-117.735 -236.791)"/><path class="f" d="M245.618,1060.989" transform="translate(-117.735 -236.791)"/><circle class="f" cx="218.633" cy="666.217" r="32.217"/><path class="f" d="M286.49,965.07c-45.481-.327-69.585,13.4-69.839,48.772" transform="translate(-117.735 -236.791)"/><path class="f" d="M216.66,1012.579c-.263,36.637,22.4,48.171,69.14,48.506" transform="translate(-117.735 -236.791)"/><path class="f" d="M340.3,934c-.146,20.214-6.756,31.485-29.5,31.321" transform="translate(-117.735 -236.791)"/><line class="f" x1="195.458" y1="728.548" x2="166.363" y2="728.262"/><path class="f" d="M245.618,1059.181" transform="translate(-117.735 -236.791)"/><text class="h" transform="translate(203.363 46.151) scale(0.859 1)">1.5</text><text class="h" transform="translate(203.363 203.151) scale(0.859 1)">3.0</text><text class="h" transform="translate(203.363 360.151) scale(0.859 1)">4.5</text><text class="h" transform="translate(203.363 518.151) scale(0.859 1)">6.0</text><text class="h" transform="translate(203.363 675.151) scale(0.859 1)">7.5</text><text class="h" transform="translate(203.363 832.151) scale(0.859 1)">9.0</text></svg>