<svg xmlns="http://www.w3.org/2000/svg" viewBox="0 0 734 388.785"><defs><style>.a,.b,.c,.d,.e,.f,.g,.h,.i{fill:none;stroke-miterlimit:10;}.a,.b{stroke:#0c0c0c;}.a,.c{stroke-width:6px;}.b,.d,.e,.f,.g,.h,.i{stroke-width:8px;}.c,.h{stroke:#8fd7f3;}.d{stroke:#f27f8c;}.e{stroke:#fab070;}.f{stroke:#8fca7c;}.g{stroke:#78cac3;}.i{stroke:#aa86bd;}.j{fill:#fff;}</style></defs><title>sleep-cycle</title><path class="a" d="M136.661,738.935" transform="translate(-16 -374.215)"/><line class="b" x1="702.543" y1="61.634" x2="702.543" y2="148.23"/><path class="b" d="M639.339,522.445c0,38.018,8.8,59.139,41.186,59.139" transform="translate(-16 -374.215)"/><path class="b" d="M679.469,581.584c30.625,0,39.074-21.065,39.074-60.139" transform="translate(-16 -374.215)"/><path class="b" d="M613.994,481.26c13.729,0,25.345,3.112,25.345,42.185" transform="translate(-16 -374.215)"/><path class="b" d="M639.339,523.5" transform="translate(-16 -374.215)"/><path class="b" d="M638.283,505.549" transform="translate(-16 -374.215)"/><line class="b" x1="571.593" y1="127.109" x2="571.593" y2="199.92"/><path class="b" d="M506.277,573.136c0,38.017,11.617,60.194,41.186,60.194" transform="translate(-16 -374.215)"/><path class="b" d="M546.407,633.33c30.625,0,41.186-21.121,41.186-60.194" transform="translate(-16 -374.215)"/><path class="b" d="M480.932,480.2c11.617-1.057,24.289,4.224,24.289,25.345" transform="translate(-16 -374.215)"/><line class="b" x1="489.221" y1="130.277" x2="490.277" y2="199.92"/><line class="b" x1="438.531" y1="131.333" x2="437.475" y2="245.33"/><path class="b" d="M373.215,618.546c0,38.017,11.617,59.138,41.186,59.138" transform="translate(-16 -374.215)"/><path class="b" d="M413.345,677.684c30.626,0,40.13-20.065,40.13-59.138" transform="translate(-16 -374.215)"/><path class="b" d="M347.87,480.2c11.265,0,25.345,7.392,25.345,26.4" transform="translate(-16 -374.215)"/><line class="b" x1="357.215" y1="131.389" x2="357.215" y2="245.33"/><line class="b" x1="306.525" y1="131.333" x2="306.525" y2="286.516"/><path class="b" d="M242.265,659.732c0,38.017,11.617,58.082,41.186,58.082" transform="translate(-16 -374.215)"/><path class="b" d="M282.4,717.814c30.626,0,40.13-19.009,40.13-58.082" transform="translate(-16 -374.215)"/><path class="b" d="M214.864,479.147c14.081,0,27.4,7.393,27.4,26.4" transform="translate(-16 -374.215)"/><line class="b" x1="226.265" y1="130.333" x2="226.265" y2="286.516"/><circle class="b" cx="40.929" cy="38.929" r="26.929"/><path class="b" d="M56.4,435.85" transform="translate(-16 -374.215)"/><line class="b" x1="174" y1="127.785" x2="173.463" y2="327.702"/><path class="b" d="M109.2,700.917C109.2,738.935,120.82,759,150.389,759" transform="translate(-16 -374.215)"/><path class="b" d="M149.333,759c30.626,0,40.13-19.009,40.13-58.083" transform="translate(-16 -374.215)"/><path class="b" d="M82.8,412.617c16.9,0,26.4,7.392,26.4,26.4" transform="translate(-16 -374.215)"/><line class="b" x1="93.204" y1="64.802" x2="93.204" y2="328.702"/><circle class="b" cx="571.699" cy="105.46" r="26.929"/><circle class="b" cx="439.27" cy="105.46" r="26.929"/><circle class="b" cx="305.786" cy="105.46" r="26.929"/><circle class="b" cx="173.358" cy="105.46" r="26.929"/><circle class="b" cx="703.071" cy="38.929" r="26.929"/><path class="c" d="M126.661,730.935" transform="translate(-16 -374.215)"/><line class="d" x1="692.543" y1="57.634" x2="692.543" y2="140.23"/><path class="d" d="M629.339,514.445c0,38.018,8.8,59.139,41.186,59.139" transform="translate(-16 -374.215)"/><path class="d" d="M669.469,573.584c30.625,0,39.074-21.065,39.074-60.139" transform="translate(-16 -374.215)"/><path class="d" d="M603.994,473.26c13.729,0,25.345,3.112,25.345,42.185" transform="translate(-16 -374.215)"/><path class="d" d="M629.339,515.5" transform="translate(-16 -374.215)"/><path class="d" d="M628.283,497.549" transform="translate(-16 -374.215)"/><line class="e" x1="561.593" y1="124.109" x2="561.593" y2="191.92"/><path class="e" d="M496.277,565.136c0,38.017,11.617,60.194,41.186,60.194" transform="translate(-16 -374.215)"/><path class="e" d="M536.407,625.33c30.625,0,41.186-21.121,41.186-60.194" transform="translate(-16 -374.215)"/><path class="e" d="M470.932,472.2c11.617-1.057,24.289,4.224,24.289,25.345" transform="translate(-16 -374.215)"/><line class="e" x1="479.221" y1="122.277" x2="480.277" y2="191.92"/><line class="f" x1="428.531" y1="123.333" x2="427.475" y2="237.33"/><path class="f" d="M363.215,610.546c0,38.017,11.617,59.138,41.186,59.138" transform="translate(-16 -374.215)"/><path class="f" d="M403.345,669.684c30.626,0,40.13-20.065,40.13-59.138" transform="translate(-16 -374.215)"/><path class="f" d="M337.87,472.2c11.265,0,25.345,7.392,25.345,26.4" transform="translate(-16 -374.215)"/><line class="f" x1="347.215" y1="123.389" x2="347.215" y2="237.33"/><line class="g" x1="296.525" y1="123.333" x2="296.525" y2="278.516"/><path class="g" d="M232.265,651.732c0,38.017,11.617,58.082,41.186,58.082" transform="translate(-16 -374.215)"/><path class="g" d="M272.4,709.814c30.626,0,40.13-19.009,40.13-58.082" transform="translate(-16 -374.215)"/><path class="g" d="M204.864,471.147c14.081,0,27.4,7.393,27.4,26.4" transform="translate(-16 -374.215)"/><line class="g" x1="216.265" y1="122.333" x2="216.265" y2="278.516"/><circle class="h" cx="30.929" cy="30.929" r="26.929"/><path class="h" d="M46.4,427.85" transform="translate(-16 -374.215)"/><line class="h" x1="164" y1="123.785" x2="163.463" y2="319.702"/><path class="h" d="M99.2,692.917C99.2,730.935,110.82,751,140.389,751" transform="translate(-16 -374.215)"/><path class="h" d="M139.333,751c30.626,0,40.13-19.009,40.13-58.083" transform="translate(-16 -374.215)"/><path class="h" d="M72.8,404.617c16.9,0,26.4,7.392,26.4,26.4" transform="translate(-16 -374.215)"/><line class="h" x1="83.204" y1="54.802" x2="83.204" y2="320.702"/><circle class="d" cx="561.699" cy="97.46" r="26.929"/><circle class="e" cx="429.27" cy="97.46" r="26.929"/><circle class="f" cx="295.786" cy="97.46" r="26.929"/><circle class="g" cx="163.358" cy="97.46" r="26.929"/><circle class="i" cx="693.071" cy="30.929" r="26.929"/><path class="j" d="M46.826,411.436V397.893a10.549,10.549,0,0,1-3.324,1.3v-1.947a9.6,9.6,0,0,0,4-2.324H49.33v16.515Z" transform="translate(-16 -374.215)"/><path class="j" d="M173.945,478.468v-.155c0-2.47,1.512-4.9,4.933-7.478,2.577-1.951,3.29-2.581,3.29-4.326a2.493,2.493,0,0,0-2.7-2.77c-1.92,0-2.788,1.03-3.11,2.929h-2.4a5.14,5.14,0,0,1,5.509-4.946c3.79,0,5.226,2.4,5.226,4.735,0,2.47-1.052,3.479-4.089,5.785-2.221,1.691-3.354,2.936-3.741,4.092h8.471l-.338,2.134Z" transform="translate(-16 -374.215)"/><path class="j" d="M306.709,466.994c.252-2.025,1.691-4.272,5.312-4.272,3.491,0,5.065,2.092,5.065,4.306a3.431,3.431,0,0,1-2.163,3.392v.061a4.019,4.019,0,0,1,2.856,4.115c0,2.57-1.591,5.172-5.8,5.172-3.895,0-5.478-2.425-5.71-4.613H308.7a3.218,3.218,0,0,0,3.386,2.618,2.936,2.936,0,0,0,3.174-3.184c0-2.056-1.236-3.038-3.4-3.038h-1.236v-1.978h1.047c2.057,0,2.943-.789,2.943-2.443,0-1.418-.927-2.391-2.674-2.391a2.606,2.606,0,0,0-2.866,2.255Z" transform="translate(-16 -374.215)"/><path class="j" d="M446.619,479.468v-4.134h-7.673v-2.2l7.365-10.111h2.639V473.26h2.1l-.255,2.074H448.95v4.134Zm0-10.125c0-1.368.014-2.872.062-3.938-.663,1.291-3.668,5.435-5.386,7.855h5.324Z" transform="translate(-16 -374.215)"/><path class="j" d="M581.965,465.121h-6.823c-.141,1.238-.528,3.554-.682,4.4a4.362,4.362,0,0,1,3.353-1.238c3.054,0,4.977,2.14,4.977,5.46,0,3.2-1.695,6.028-5.767,6.028-3,0-5.173-1.634-5.591-4.458h2.483a3.067,3.067,0,0,0,3.183,2.463c2.133,0,3.183-1.529,3.183-3.845,0-2.047-.834-3.595-3.042-3.595a3.044,3.044,0,0,0-3.224,2.057l-2.273-.384c.48-2.143,1.123-6.876,1.37-8.984h9.2Z" transform="translate(-16 -374.215)"/><path class="j" d="M711.622,400.652a2.459,2.459,0,0,0-2.645-1.993c-2.661,0-3.5,2.5-3.588,5.729a4.462,4.462,0,0,1,4.088-2.141c3.151,0,5.064,2.295,5.064,5.476,0,3.288-1.97,6.012-5.644,6.012-4.579,0-5.955-3.673-5.955-8.309,0-4.484,1.484-8.737,6.142-8.737,3.392,0,4.76,2.2,4.964,3.963Zm.408,7.26c0-1.786-.685-3.647-3.108-3.647-1.949,0-3.292,1.231-3.292,3.606,0,1.352.68,3.826,3.235,3.826C711.119,411.7,712.03,409.9,712.03,407.912Z" transform="translate(-16 -374.215)"/></svg>