<svg xmlns="http://www.w3.org/2000/svg" viewBox="0 0 251.767 851.433"><defs><style>.a,.b,.d,.f,.h,.j{fill:none;stroke-miterlimit:10;}.a,.b{stroke:#8fd7f3;}.a{stroke-width:6px;}.b,.d,.f,.h,.j{stroke-width:8px;}.c{fill:#8fd7f3;}.d{stroke:#65b2f9;}.e{fill:#65b2f9;}.f{stroke:#81e67f;}.g{fill:#81e67f;}.h{stroke:#ffb16f;}.i{fill:#ffb16f;}.j{stroke:#ff808d;}.k{fill:#c883ff;}.l{fill:#ff808d;}</style></defs><title>sleep-cycle</title><path class="a" d="M301.856,361.591" transform="translate(-273.735 -234.791)"/><path class="b" d="M470.127,266.181" transform="translate(-273.735 -234.791)"/><circle class="c" cx="219.55" cy="32.217" r="32.217"/><line class="b" x1="188.444" y1="189.209" x2="71.953" y2="190.286"/><path class="b" d="M347.573,329.07c-45.481-.327-69.584,13.4-69.839,48.772" transform="translate(-273.735 -234.791)"/><path class="b" d="M277.744,376.579c-.264,36.637,22.395,48.171,69.139,48.506" transform="translate(-273.735 -234.791)"/><path class="b" d="M495.379,298c-.145,20.214-6.755,31.485-29.5,31.321" transform="translate(-273.735 -234.791)"/><line class="b" x1="194.541" y1="94.548" x2="71.446" y2="94.262"/><path class="d" d="M460.905,424.989" transform="translate(-273.735 -234.791)"/><path class="a" d="M324.856,519.091" transform="translate(-273.735 -234.791)"/><path class="b" d="M470.127,423.681" transform="translate(-273.735 -234.791)"/><circle class="e" cx="219.55" cy="189.717" r="32.217"/><line class="d" x1="188.444" y1="346.709" x2="94.953" y2="347.786"/><path class="d" d="M370.573,486.57c-45.481-.327-69.584,13.4-69.839,48.772" transform="translate(-273.735 -234.791)"/><path class="d" d="M300.744,534.079c-.264,36.637,22.395,48.171,69.139,48.506" transform="translate(-273.735 -234.791)"/><path class="d" d="M495.379,455.5c-.145,20.214-6.755,31.485-29.5,31.321" transform="translate(-273.735 -234.791)"/><line class="d" x1="194.541" y1="252.048" x2="94.446" y2="251.762"/><path class="d" d="M460.905,582.489" transform="translate(-273.735 -234.791)"/><path class="b" d="M470.127,581.181" transform="translate(-273.735 -234.791)"/><path class="f" d="M348.856,676.591" transform="translate(-273.735 -234.791)"/><circle class="g" cx="219.55" cy="347.217" r="32.217"/><line class="f" x1="188.444" y1="504.209" x2="118.953" y2="505.286"/><path class="f" d="M394.573,644.07c-45.481-.327-69.584,13.4-69.839,48.772" transform="translate(-273.735 -234.791)"/><path class="f" d="M324.744,691.579c-.264,36.637,22.395,48.171,69.139,48.506" transform="translate(-273.735 -234.791)"/><path class="f" d="M495.379,613c-.145,20.214-6.755,31.485-29.5,31.321" transform="translate(-273.735 -234.791)"/><line class="f" x1="194.541" y1="409.548" x2="118.446" y2="409.262"/><path class="d" d="M460.905,739.989" transform="translate(-273.735 -234.791)"/><path class="h" d="M372.856,834.091" transform="translate(-273.735 -234.791)"/><circle class="i" cx="219.55" cy="504.717" r="32.217"/><path class="h" d="M470.127,738.681" transform="translate(-273.735 -234.791)"/><line class="h" x1="188.444" y1="661.709" x2="142.953" y2="662.786"/><path class="h" d="M418.573,801.57c-45.481-.327-69.584,13.4-69.839,48.772" transform="translate(-273.735 -234.791)"/><path class="h" d="M348.744,849.079c-.264,36.637,22.395,48.171,69.139,48.506" transform="translate(-273.735 -234.791)"/><path class="h" d="M495.379,770.5c-.145,20.214-6.755,31.485-29.5,31.321" transform="translate(-273.735 -234.791)"/><line class="h" x1="194.541" y1="567.048" x2="142.446" y2="566.762"/><path class="d" d="M460.905,897.489" transform="translate(-273.735 -234.791)"/><line class="j" x1="186.361" y1="819.209" x2="166.869" y2="820.286"/><path class="k" d="M492.136,1086.223a32.216,32.216,0,1,1,32.448-31.984,32.216,32.216,0,0,1-32.448,31.984" transform="translate(-273.735 -234.791)"/><path class="j" d="M401.618,991.591" transform="translate(-273.735 -234.791)"/><path class="j" d="M472.618,896.181" transform="translate(-273.735 -234.791)"/><path class="j" d="M401.618,1054.989" transform="translate(-273.735 -234.791)"/><circle class="l" cx="218.633" cy="662.217" r="32.217"/><path class="j" d="M442.49,959.07c-45.481-.327-69.585,13.4-69.839,48.772" transform="translate(-273.735 -234.791)"/><path class="j" d="M372.66,1006.579c-.263,36.637,22.4,48.171,69.14,48.506" transform="translate(-273.735 -234.791)"/><path class="j" d="M496.3,928c-.146,20.214-6.756,31.485-29.5,31.321" transform="translate(-273.735 -234.791)"/><line class="j" x1="195.458" y1="724.548" x2="166.363" y2="724.262"/><path class="j" d="M401.618,1053.181" transform="translate(-273.735 -234.791)"/></svg>